<?xml version="1.0" standalone="no"?>
<!DOCTYPE svg PUBLIC "-//W3C//DTD SVG 1.1//EN" "http://www.w3.org/Graphics/SVG/1.1/DTD/svg11.dtd" >
<svg xmlns="http://www.w3.org/2000/svg" xmlns:xlink="http://www.w3.org/1999/xlink" version="1.1">
<metadata></metadata>
<defs>
<font id="wizards_magicregular" horiz-adv-x="1705" >
<font-face units-per-em="2048" ascent="1638" descent="-410" />
<missing-glyph horiz-adv-x="1024" />
<glyph horiz-adv-x="0" />
<glyph horiz-adv-x="682" />
<glyph unicode=" "  horiz-adv-x="1024" />
<glyph unicode="&#x09;" horiz-adv-x="1024" />
<glyph unicode="&#xa0;" horiz-adv-x="1024" />
<glyph unicode="!" horiz-adv-x="471" d="M135 63q0 25 24.5 57t65.5 32q37 0 53.5 -30t16.5 -52q0 -41 -21.5 -59.5t-52.5 -18.5q-14 0 -39 10q-47 23 -47 61zM160 307v1098q4 33 22.5 49t40.5 16q23 0 39.5 -15t20.5 -48v-1098q-8 -29 -25.5 -42t-38.5 -13q-18 0 -35.5 12.5t-23.5 40.5z" />
<glyph unicode="&#x22;" horiz-adv-x="649" d="M127 1376q4 33 22.5 49.5t40.5 16.5q31 0 46.5 -49.5t22.5 -119t8 -143t1 -124.5q-8 -29 -25.5 -42.5t-37.5 -13.5q-31 0 -47.5 48.5t-22.5 116t-7 140t-1 121.5zM395 999q0 86 2 171t2 171q4 33 22.5 49.5t41.5 16.5t39 -15.5t20 -48.5q0 -47 3 -114.5t-1 -131 t-19.5 -107.5t-49.5 -44q-18 0 -36 12.5t-24 40.5z" />
<glyph unicode="#" horiz-adv-x="1064" d="M133 905q0 18 11.5 34.5t35.5 27.5q43 4 87 8t87 6q10 104 26.5 204.5t45.5 203.5q10 18 25.5 27t31.5 9q25 0 43.5 -18t16.5 -53q-27 -92 -42.5 -184.5t-25.5 -186.5h86t86 -2q6 41 13.5 80t15.5 80q10 53 19.5 118.5t35.5 112.5q20 37 55 37q29 0 49.5 -25.5t6.5 -66.5 q-8 -8 -18.5 -52t-20.5 -97.5t-17.5 -101.5t-9.5 -65q-2 -6 -2 -12t-2 -10q27 -2 53.5 -2h53.5q27 -8 40 -25.5t13 -38.5q0 -20 -14.5 -36.5t-43.5 -22.5h-62.5t-61.5 2q-16 -76 -29.5 -150.5t-28.5 -150.5q39 2 78 2h78q27 -8 40 -25.5t13 -37.5t-14.5 -37t-42.5 -23h-86 t-86 -2q-6 -45 -6 -90t-9 -92q-6 -53 -20 -106.5t-25 -106.5q-18 -47 -59 -47q-16 0 -33.5 10t-27.5 33v2q-2 6 -1 13t1 13q2 0 2 2q0 4 2 9h-2q0 2 1 2t1 2q2 14 6 34.5t8 40t7 34t3 16.5q16 55 20.5 112.5t10.5 114.5q-35 -2 -70 -3t-69 -3q-2 -14 -4 -27.5t-5 -27.5 q-8 -41 -13 -87.5t-12 -94.5t-19.5 -93t-32.5 -84q-49 -59 -105 -4q0 4 -4 4q-12 23 -9 44.5t17 33.5q4 10 6 22.5t7 22.5q10 72 24 141.5t27 139.5q-20 -2 -40 -4.5t-40 -4.5q-31 4 -46.5 20.5t-15.5 39.5q0 18 11.5 34.5t36.5 26.5q29 4 57.5 6t56.5 7l6 36 q10 72 16.5 142.5t12.5 142.5q-76 -2 -149 -12q-31 4 -46.5 20.5t-15.5 38.5zM430 545q35 4 71 5t70 3q4 18 8.5 37.5t8.5 38.5v2q10 57 19 113.5t20 115.5q-41 0 -83 1t-83 1q-8 -80 -14.5 -158.5t-16.5 -158.5zM492 61v2q0 5 2 9q0 -6 -2 -11z" />
<glyph unicode="$" horiz-adv-x="1064" d="M158 1049q0 16 1 30.5t1 30.5q0 53 27.5 96t71.5 77t99.5 56.5t110.5 34.5q-7 111 20 213q10 18 25.5 27.5t32.5 9.5q25 0 43 -18.5t16 -53.5q-10 -41 -12 -80.5t2 -80.5h23.5t21.5 -2q35 -4 58.5 -10.5t44 -16.5t41 -23.5t46.5 -31.5q31 -23 31 -56q0 -31 -26.5 -50 t-67.5 -1q-25 16 -38 27.5t-27.5 18.5t-31 11.5t-46.5 8.5h-19q2 -10 2 -31q2 -57 2 -112.5v-110.5v-111.5t-2 -112.5q51 -25 99.5 -54t88.5 -67t66.5 -89.5t36.5 -118.5q6 -41 6 -78q0 -84 -26.5 -151.5t-72.5 -114.5t-109.5 -74t-137.5 -29q-4 -39 -2 -77.5t12 -81.5 q-2 -33 -20.5 -49.5t-40.5 -16.5q-39 0 -59 41q-14 55 -15 117q0 20 1 39.5t3 38.5q-16 4 -29.5 8t-29.5 8q-76 25 -127 63.5t-86 108.5q-4 37 14.5 57.5t42.5 20.5q33 0 58 -33q23 -45 55.5 -64.5t79.5 -35.5q10 -4 18 -6.5t19 -4.5q0 16 2 25q10 133 17 265t11 265v21 q-51 23 -100 47.5t-92 55t-76 70.5t-49 95q-8 25 -8 60zM283 1111q-12 -38 2 -87q20 -66 76.5 -105.5t127.5 -74.5q2 51 3.5 102t1.5 105q0 53 -2.5 103t-6.5 101q-45 -10 -87 -29.5t-72.5 -48t-42.5 -66.5zM573 133q104 10 161.5 88t41.5 221q-10 78 -57 129.5t-115 87.5 q-4 -127 -11 -251.5t-18 -251.5q-2 -8 -2 -23z" />
<glyph unicode="%" horiz-adv-x="1708" d="M72 881q0 74 19.5 157.5t54 155.5t85 120t111.5 50h6q18 10 37 16q6 0 20.5 -1t32 -4t33.5 -7t25 -10q39 -35 73.5 -81t62 -99.5t44 -110.5t16.5 -113q0 -51 -14 -92q-8 -29 -16.5 -56.5t-18.5 -55.5q-12 -33 -41 -60.5t-66.5 -48t-79.5 -33t-77 -12.5q-10 0 -31 4 q-43 10 -81 18.5t-69.5 23.5t-57.5 41t-46 73q-23 51 -22 125zM190 901q0 -74 38 -126t132 -52q60 0 109 25q49 23 70.5 77t21.5 119q0 41 -8 84t-21.5 81t-34 70.5t-44.5 53.5q-16 -10 -41 -10q-14 4 -28.5 7t-29.5 7q-33 -20 -62.5 -57t-52 -83t-36 -97.5t-13.5 -98.5z M463 8q0 14 6 31q113 166 209 338t187 348t181.5 353t188.5 349q25 27 53 27q23 0 41.5 -16.5t18.5 -44.5q0 -6 -5 -23q-100 -174 -191 -353t-183 -357.5t-190.5 -353.5t-211.5 -341q-25 -18 -47 -18q-25 0 -41 16.5t-16 44.5zM1032 338q0 72 15.5 146.5t43 138t64.5 109.5 t82 63q16 6 44 7t36 1q43 -6 57 -41q18 14 39 14q25 0 51 -22q41 -53 76 -111.5t57 -122.5q25 -74 25 -151q0 -66 -18.5 -128.5t-55.5 -110.5t-93 -76.5t-132 -28.5h-6q-41 2 -87 20t-79 31q-63 27 -91 98.5t-28 163.5zM1151 360q0 -59 16.5 -106t51.5 -72q33 -23 61.5 -33 t54.5 -10q66 0 106 56.5t50 134.5q2 12 2 23.5v23.5q0 86 -36 159.5t-89 139.5q-8 8 -12 20q-10 -10 -27 -16q-6 0 -13 1t-13 1t-19 -4q-29 -14 -53.5 -47t-42 -77t-27.5 -94t-10 -100z" />
<glyph unicode="&#x26;" horiz-adv-x="1214" d="M57 299v16q8 135 76 253t184 190q25 16 51.5 29.5t55.5 27.5q-20 33 -39.5 66.5t-36.5 70.5q-18 39 -27.5 83t-9.5 91q0 59 13.5 119t40 113t64.5 97t85 73q82 49 148 49q61 0 106 -35t74.5 -91t44 -127t14.5 -140q0 -106 -31 -187q-35 -94 -108.5 -146t-161.5 -93 q68 -86 145.5 -164t147.5 -160q14 27 31.5 61.5t37 65.5t45 54.5t56.5 27.5q29 -4 44 -21.5t15 -37.5q0 -31 -24 -52l-4 -4q-14 -16 -17.5 -22t-13.5 -23q-18 -31 -35.5 -62.5t-38.5 -64.5l-8 -12l-8 -12q43 -59 70.5 -111.5t46.5 -122.5q12 -41 22 -80q4 -8 8 -24 q0 -2 2 -4q0 -2 2 -2h-2q10 -12 11 -35q0 -23 -16.5 -41t-45.5 -18q-8 0 -24 4q-29 14 -43.5 46.5t-23.5 72.5t-17.5 79t-24.5 64q-12 18 -23.5 37.5t-23.5 38.5q-94 -90 -211 -148q-63 -33 -114.5 -49t-121.5 -33q-31 -6 -59 -6q-63 0 -121.5 22.5t-104.5 62.5t-74 95.5 t-28 118.5zM176 299q0 -25 6.5 -46.5t20.5 -37.5q41 -47 92 -66.5t106 -19.5t112.5 17.5t112 45t103.5 64.5t88 78q-43 53 -83 96t-93 102q-41 45 -77 88.5t-70 90.5q-78 -35 -145.5 -80t-108.5 -119q-8 -16 -19.5 -39.5t-21 -52.5t-16.5 -60.5t-7 -60.5zM438 1128 q2 -33 8.5 -64.5t16.5 -64.5q12 -37 28.5 -70.5t36.5 -66.5q70 33 131.5 76t102.5 115q12 23 18 56.5t6 74.5q0 39 -6 79t-18 74.5t-30.5 62t-43.5 40.5q-29 12 -51 12q-47 0 -84 -39t-62.5 -92t-39 -107.5t-13.5 -85.5z" />
<glyph unicode="'" horiz-adv-x="368" d="M109 1409q4 33 22.5 49.5t40.5 16.5q23 0 39 -15.5t20 -48.5q2 -117 7.5 -234.5t7.5 -234.5q-8 -29 -25.5 -42t-38.5 -13q-18 0 -35.5 12t-23.5 41q-2 117 -7 234.5t-7 234.5z" />
<glyph unicode="(" horiz-adv-x="462" d="M78 397q0 129 7 265.5t25.5 263.5t48 233.5t72.5 173.5q23 31 43.5 60.5t40.5 60.5q25 27 54 27q23 0 40 -16.5t17 -43.5q0 -20 -12 -41q-18 -29 -40 -54.5t-38 -55.5q-41 -78 -67.5 -175.5t-43 -204t-23.5 -219t-7 -222.5q0 -117 6 -224.5t16 -199.5q4 -43 18.5 -84 t31 -82t29.5 -82t17 -86q-8 -29 -25.5 -42.5t-37.5 -13.5q-18 0 -35.5 12.5t-24.5 41.5q-2 41 -15 79.5t-29.5 76.5t-31 77t-18.5 80q-8 72 -13 174.5t-5 220.5z" />
<glyph unicode=")" horiz-adv-x="604" d="M102 1446q0 25 17.5 41t42.5 16q29 0 51 -22q27 -27 54.5 -51.5t47.5 -53.5q49 -70 84 -156.5t56.5 -185t31 -202t9.5 -207.5q0 -143 -15.5 -277.5t-38.5 -243.5q-12 -53 -32.5 -101t-43 -96t-41 -97.5t-24.5 -102.5q-8 -29 -25.5 -42t-37.5 -13q-23 0 -40.5 16.5 t-17.5 48.5v9q6 55 24.5 104t40 96t43 95.5t34.5 101.5q23 102 38 231t15 269q0 94 -8.5 189t-26.5 184t-49 167t-76 140q-20 29 -46.5 52t-51.5 48q-14 20 -15 43z" />
<glyph unicode="*" horiz-adv-x="1556" d="M98 1350h461l174 348q0 4 18.5 7t26.5 3q41 0 68.5 -25.5t46 -65.5t33 -89t31 -97.5t37 -89.5t53.5 -63q16 -12 52 -14t80 -3t91 -4.5t85 -13.5t62.5 -30.5t24.5 -59.5q0 -8 -4 -26.5t-6 -22.5l-351 -244q18 -53 27.5 -111.5t13.5 -119t5 -119.5t1 -111q-53 0 -112.5 28 t-116.5 68t-109.5 82.5t-91.5 73.5q-37 -20 -88 -48t-109.5 -52.5t-118.5 -40.5t-114 -16q0 61 18.5 118.5t40 112.5t40 110.5t18.5 112.5v17q-39 33 -89 73.5t-94 89t-74 103.5t-30 119z" />
<glyph unicode="+" horiz-adv-x="1191" d="M8 547q0 20 14.5 37.5t43.5 23.5q121 -2 239.5 -4t241.5 -6q-4 123 -6 245t-2 244q4 33 22.5 49.5t40.5 16.5q23 0 39 -15.5t21 -47.5q0 -125 2 -248t6 -246q211 -6 422 -6q14 6 30 6q25 0 41.5 -16.5t16.5 -40.5q0 -20 -13 -41q-20 -20 -53 -26.5t-67 -6.5q-35 0 -66 3 t-53 3q-66 0 -128.5 1t-125.5 3q4 -135 6 -267t4 -267q-8 -29 -25.5 -42.5t-37.5 -13.5q-18 0 -36 12.5t-24 41.5q-2 135 -4 269t-6 269q-125 4 -248 5t-246 3q-27 10 -38 26.5t-11 35.5z" />
<glyph unicode="," horiz-adv-x="423" d="M-4 -268q0 27 20 49q72 78 105 159t37 187q4 33 22.5 49.5t40.5 16.5q23 0 39 -15.5t21 -48.5q-4 -133 -47.5 -236.5t-133.5 -199.5q-23 -16 -47 -17q-25 0 -41 16.5t-16 39.5z" />
<glyph unicode="-" horiz-adv-x="628" d="M-37 514q0 20 14.5 38.5t42.5 25.5h594q31 -4 46.5 -21.5t15.5 -40.5t-17.5 -42t-52.5 -19h-573q-35 0 -52.5 18.5t-17.5 40.5z" />
<glyph unicode="." horiz-adv-x="423" d="M104 100q1 33 21 68q16 25 37.5 36t44.5 11q41 0 69 -25q6 -4 12.5 -8t14.5 -10q14 -14 18.5 -24.5t6.5 -28.5q-12 -66 -45 -95.5t-70 -29.5q-41 0 -75 29.5t-34 76.5z" />
<glyph unicode="/" horiz-adv-x="702" d="M82 -33q4 37 18.5 69t29.5 62.5t30.5 61t21.5 65.5q66 326 167 636.5t216 621.5q10 23 26.5 34t33.5 11q23 0 40 -16.5t17 -45.5q0 -14 -2 -22q-113 -305 -213 -610.5t-164 -626.5q-6 -35 -21.5 -66.5t-32 -62.5t-29.5 -62.5t-17 -66.5q-8 -29 -25.5 -42t-38.5 -13 q-23 0 -40 16t-17 49v8z" />
<glyph unicode="0" />
<glyph unicode="1" />
<glyph unicode="2" />
<glyph unicode="3" />
<glyph unicode="4" />
<glyph unicode="5" />
<glyph unicode="6" />
<glyph unicode="7" />
<glyph unicode="8" />
<glyph unicode="9" />
<glyph unicode=":" horiz-adv-x="423" d="M102 98q0 23 12.5 38.5t28.5 21.5q12 25 33 40t43 15q16 0 32.5 -8t33.5 -29q20 -27 20 -55q0 -10 -2 -17q4 -8 4 -24q0 -25 -14 -44.5t-37 -29.5q-16 -33 -55 -33q-23 0 -43 15q-29 29 -33 61q-11 9 -19 27q-2 6 -3 11t-1 11zM121 817q0 47 39 74q20 33 61 33 q45 0 65.5 -23.5t20.5 -54.5q0 -29 -14 -51q-6 -51 -57 -68l-13 -6q-16 -6 -28 -6q-29 0 -44.5 19.5t-15.5 41.5q-14 16 -14 41z" />
<glyph unicode=";" horiz-adv-x="423" d="M-4 -252q0 27 20 49q23 18 47.5 67.5t46 107t37 112.5t21.5 86q10 23 26.5 34t32.5 11q23 0 40.5 -16.5t21.5 -46.5q-8 -43 -26.5 -107.5t-43 -129.5t-55.5 -122t-64 -84q-23 -16 -47 -16q-25 0 -41 16.5t-16 38.5zM100 842q0 14 4 22v10q0 45 32 82t77 37q31 0 55 -18 q29 -23 41.5 -45.5t12.5 -44.5q6 -16 6 -31q0 -37 -29 -66.5t-72 -29.5q-14 0 -22 2h-4q-8 -2 -23 -2q-25 0 -44.5 13t-29.5 46q-4 8 -4 25z" />
<glyph unicode="&#x3c;" horiz-adv-x="1220" d="M256 535q0 33 39 58t100 60q74 41 143.5 79t129.5 97q39 37 74.5 74t73.5 72t80 63.5t91 51.5q6 2 19 2q29 0 45 -17.5t16 -40.5q0 -33 -31 -55q-63 -29 -115.5 -74t-100.5 -94t-98 -97t-112 -83q-43 -25 -88 -47.5t-88 -48.5q-4 -2 -8 -4.5t-12 -6.5q51 -43 138 -87 t179 -90t176 -93t129 -98q8 -18 8 -33q0 -16 -4 -27q-4 -12 -8 -18q-20 -35 -55 -35q-23 0 -39 15.5t-20 41.5q-53 49 -119 81t-129 65q-49 27 -99.5 50t-99.5 50q-16 10 -49 30.5t-49 31.5q-63 41 -90 71.5t-27 55.5z" />
<glyph unicode="=" horiz-adv-x="1220" d="M4 358q0 20 14.5 39t42.5 25q260 0 516.5 3t514.5 3q31 -4 46 -21.5t15 -39.5q0 -23 -17.5 -42.5t-52.5 -19.5q-254 0 -504.5 -3t-504.5 -3q-35 0 -52.5 18.5t-17.5 40.5zM10 739q0 20 14.5 39t43.5 25q266 0 528 -3t526 -3q31 -4 46.5 -21.5t15.5 -40.5t-17.5 -42 t-52.5 -19q-260 0 -517 3t-517 3q-35 0 -52.5 18.5t-17.5 40.5z" />
<glyph unicode="&#x3e;" horiz-adv-x="1220" d="M27 1008q0 23 16 41t43 18q16 0 37 -10q104 -68 207.5 -137.5t211 -128t222.5 -100.5t242 -52q23 -2 38 -16q29 0 44.5 -17.5t15.5 -40.5q0 -18 -11.5 -35.5t-35.5 -27.5q-29 -12 -53.5 -30.5t-49 -39t-48 -42t-50.5 -38.5q-170 -111 -344 -210t-358 -187q-16 -6 -29 -6 q-27 0 -43 18.5t-16 40.5q0 16 9 31.5t29 26.5q180 86 349.5 182t334.5 205q27 16 50.5 36.5t48.5 42.5q-117 23 -223.5 67t-208 101.5t-200 121.5t-198.5 130q-31 25 -30 56z" />
<glyph unicode="?" horiz-adv-x="950" d="M51 1456q0 217 115 310.5t319 93.5q74 0 154 -32t147.5 -85t110.5 -125t43 -152q0 -135 -46 -266t-138 -231q-55 -59 -116.5 -123t-115 -132.5t-88.5 -147.5t-35 -169q0 -43 5.5 -72.5t18.5 -55t34.5 -49t54.5 -52.5v-18q0 -23 -9 -40.5t-34 -17.5q-47 0 -78 49 t-47 112.5t-22.5 125t-6.5 88.5q0 66 22.5 123t57.5 109.5t76 100.5t76 95q33 45 67.5 101.5t64.5 118t50.5 123.5t24.5 122q4 72 -17.5 140.5t-66.5 125.5q-16 10 -41 28.5t-54.5 37t-60.5 32t-57 13.5q-43 0 -88 -16.5t-84 -46t-63.5 -69.5t-24.5 -85q0 -12 2 -28.5t8 -31 t17.5 -22.5t31.5 -4t25.5 21.5t7.5 36.5t9 34.5t32 15.5q16 0 24.5 -12t11.5 -29.5t2 -37t-1 -33.5q0 -29 -7.5 -63t-22.5 -62.5t-40 -48t-59 -19.5q-41 0 -76 19.5t-59.5 51t-39 70.5t-14.5 78zM485 -25q0 84 44 138.5t130 54.5q113 0 113 -115q0 -31 -8 -65.5t-25.5 -65.5 t-43 -51.5t-62.5 -20.5q-70 0 -109 26.5t-39 98.5z" />
<glyph unicode="@" />
<glyph unicode="A" horiz-adv-x="1273" d="M-233 -545q70 94 124 200.5t93 217.5t62.5 223.5t31.5 220.5q23 313 27 623.5t26 628.5q6 88 42 176t96.5 157.5t144.5 112.5t188 43q18 1 34 1q140 0 226 -45q96 -50 144.5 -139t58.5 -210q6 -71 6 -149q0 -54 -3 -111q-7 -139 -22 -287q-16 -148 -18 -292v-27 q0 -129 18 -248q20 -131 82 -236q4 -4 17.5 -12t29 -17.5t29 -18.5t17.5 -11q10 -4 12 -7t0 -11q-59 -33 -111 -60q-43 -23 -82 -44t-49 -30q-63 -51 -110 -111.5t-86 -126t-72 -133t-66 -130.5q-6 -10 -13 -11.5t-17 -1.5q10 127 47 253t80 253t79.5 256t47.5 264 q6 86 10 172q1 25 1 49q0 61 -7 121l-424 -67q-10 -4 -38 -9t-57.5 -11.5t-53 -11.5t-25.5 -11q0 -6 -2 -22.5t-4 -35t-4.5 -35t-2.5 -22.5q-2 -35 -6 -89t-5 -116v-32q0 -46 2 -96q3 -66 12.5 -124.5t27 -103.5t47.5 -68q18 -14 47 -19t56.5 -11t47 -17.5t17.5 -38.5 q-43 0 -82 -2t-80 -16q-29 -6 -58.5 -23.5t-59 -40t-55 -48t-44.5 -46.5q-86 -80 -163.5 -173t-143.5 -189q-6 -2 -22.5 -16.5t-20.5 -16.5h-8h-4q-4 0 -8 4zM280 1272q1 -64 3 -138q1 -37 1 -75t-1 -78h75q137 0 265.5 31.5t269.5 66.5q0 6 2 25.5t3 41t3 40t2 24.5 q6 82 9 184q1 19 1 38q0 82 -11 164q-13 102 -49 192t-105 149q-18 16 -40 29.5t-51 13.5q-106 0 -172.5 -54t-106.5 -133t-59.5 -164t-29.5 -146q-8 -39 -9 -93v-56.5v-61.5z" />
<glyph unicode="B" horiz-adv-x="1314" d="M-37 -309q0 25 11.5 47t26.5 42.5t32.5 41t27.5 39.5q29 39 47.5 90t28.5 96q4 18 16.5 69.5t27 110t27.5 110.5t19 75q-4 54 -4 110q-1 66 5 132q10 124 23 249t26.5 251t13.5 247v52t-1 62.5t-1 54v25.5q-2 35 -10.5 91.5t-28 110.5t-53 93t-84.5 39q-25 0 -45.5 -15.5 t-36 -37t-24.5 -48t-9 -46.5q0 -59 19.5 -86t43 -41.5t43 -22.5t19.5 -28q-47 0 -76 15t-45 42t-22.5 61.5t-6.5 73.5q0 70 34 118t106 71q18 2 59 6t91 8t106.5 9t106.5 10t89 8.5t58 5.5h26q106 0 191.5 -32t146 -91.5t93 -145.5t32.5 -192q0 -78 -17.5 -142.5t-49 -123 t-75.5 -112.5t-96 -112q111 -4 185 -43t120 -103.5t65.5 -150.5t19.5 -184q0 -80 -11.5 -151.5t-42.5 -151.5q-41 -106 -99 -163.5t-131 -86.5t-156 -36t-171 -11t-177 -13.5t-175 -43t-166 -100t-147 -183.5h-8q-12 0 -14.5 10.5t-2.5 20.5zM385 518q0 -55 1 -109.5 t10.5 -104.5t29.5 -96t61 -87q6 -6 20.5 -16.5t31 -19.5t33 -16.5t28.5 -7.5h184q63 0 111.5 49.5t79.5 117t46 139t15 116.5q0 59 -11 143.5t-42 161t-83 131t-132 54.5q-51 0 -103.5 -29t-100.5 -68.5t-91 -82.5l-74 -74q-6 -18 -9 -46t-4 -56.5t-1 -55.5v-43zM397 809h13 q2 0 24.5 17.5t53 41t62.5 49t50 41.5q141 123 207.5 293t66.5 355q0 47 -4 107.5t-20 114.5t-53.5 91t-100.5 37q-88 0 -142 -9.5t-85 -39t-44 -82.5t-15 -142v-55t1 -96t1 -117.5v-118t-1 -97.5t-1 -54q0 -8 -2 -39t-3.5 -65.5t-3.5 -66.5t-2 -40t-1 -26.5t-1 -38v-37 v-23.5z" />
<glyph unicode="C" horiz-adv-x="1210" d="M59 948q0 109 16.5 230.5t52.5 241.5t91 229.5t135 193.5t183.5 133t234.5 49q55 0 95 -6t77 -21.5t73 -39t81 -55.5q45 -39 66 -93q20 -52 24 -112q2 -30 2 -60t-2 -62q-4 -62 -4 -118q-16 -57 -49 -125.5t-79 -129t-105.5 -101.5t-129.5 -41h-19.5t-26.5 2t-23.5 8 t-10.5 19q82 0 140.5 44t95.5 111.5t54.5 146t17.5 148.5q0 80 -19.5 147.5t-61.5 117.5t-106.5 78t-152.5 28q-92 0 -160 -64.5t-115 -166t-76.5 -226.5t-46 -244.5t-22.5 -222t-6 -158.5q0 -104 9 -199t35.5 -183.5t75 -167t125.5 -150.5q39 -33 90.5 -33h100.5 q29 0 65.5 30t74.5 79t76 112.5t66.5 130t46 132t17.5 118.5q0 58 3 98q1 7 1 15q0 34 -12 76q-6 29 -8 50t-2 52h24q2 0 12.5 -23.5t14.5 -39.5q12 -39 23.5 -79t11.5 -81q0 -113 -15.5 -203t-47.5 -170t-80 -156.5t-113 -160.5q-16 -23 -47 -38t-66 -23.5t-67.5 -11.5 t-55.5 -3q-59 0 -116.5 19.5t-110 52t-96 76t-74.5 88.5q-20 47 -48 90t-51 96q-51 125 -68.5 258t-17.5 268z" />
<glyph unicode="D" horiz-adv-x="1480" d="M33 1800q0 80 44 127t120 66q23 2 79 8t119.5 12t119.5 11.5t79 9.5q4 0 15.5 2t23.5 3t23.5 3t13.5 2h12q90 0 170 -16.5t156 -59.5q35 -20 80 -39.5t79 -48.5q70 -53 112 -125t64.5 -152.5t32.5 -165.5t19 -165q16 -154 19 -298.5t3 -295.5v-15q1 -95 -23 -201 q-26 -114 -81.5 -212t-141.5 -168t-202 -84q-104 -8 -200.5 -12t-180.5 -28t-158 -77t-135 -160q-8 -12 -14.5 -42.5t-14.5 -64.5t-22.5 -59.5t-36.5 -25.5v94q6 20 20.5 74.5t30.5 114t29.5 112.5t19.5 74q2 10 7 33.5t5 27.5l76 1235v21.5t1 43t1 47.5v36q0 39 1 90v26 q0 40 -2 80q-3 54 -13 107t-33.5 94t-62.5 66.5t-99 25.5q-49 0 -77.5 -36.5t-28.5 -82.5v-30.5t3 -35.5t13.5 -28.5t28.5 -11.5q27 0 41 14.5t43 14.5q0 -41 -27.5 -60.5t-70.5 -19.5q-29 0 -44.5 14t-23.5 37t-10 47.5t-2 46.5zM518 569q0 -96 9.5 -186t44 -158.5 t102 -109.5t182.5 -41q86 18 149.5 63t105.5 105.5t68.5 130t40 135t17.5 121t4 90.5q14 158 14 318.5t-33.5 310t-113.5 279.5t-227 228q-41 27 -89.5 46.5t-99.5 19.5q-41 0 -66.5 -18.5t-41 -46t-24.5 -61.5t-15 -62q1 -60 1 -120q0 -232 -12 -462q-16 -289 -16 -582z " />
<glyph unicode="E" horiz-adv-x="1351" d="M29 166v22q0 16 2 25.5t22 9.5q16 0 24.5 -23.5t23 -52t39 -52t73.5 -23.5q35 0 52.5 10t23.5 28.5t6 43v51.5v8q-2 20 -3 70.5t-3 106.5t-3 105.5t-3 69.5q-16 51 -19.5 90t-3.5 90q0 14 1 43t1 31l78 570v284q0 27 -5 55.5t-19.5 52t-39 39t-63.5 15.5 q-47 0 -71.5 -25.5t-37 -56.5t-19.5 -56.5t-19 -25.5q-25 0 -25 12.5v28.5q0 88 47 128q46 40 116 54q61 13 132 13h19q27 -1 53 -1q51 0 96 3q10 2 64.5 6t123 10t138 12.5t108.5 10.5q72 6 143.5 24.5t139.5 40.5q29 8 48 19.5t52 11.5q8 0 16.5 -2t8.5 -14 q0 -8 -9.5 -19.5t-20.5 -24t-22.5 -24.5t-17.5 -23q-45 -104 -60.5 -212.5t-15.5 -219.5v-59q2 -12 9.5 -40t16.5 -59.5t17 -60.5t14 -39v-10q0 -20 -26 -20q-16 0 -23.5 1t-15.5 9q-6 47 -27.5 87t-31.5 85q-10 39 -13.5 104.5t-14.5 130t-39 118.5t-85 73q-72 2 -149.5 9 t-153.5 7q-45 0 -79 -26.5t-58.5 -64.5t-38 -80t-19.5 -71q0 -6 -3 -28.5t-6 -52t-6 -58t-5 -43.5v-16v-52t2 -85t8 -97.5t19.5 -92.5t33 -68.5t49.5 -26.5q51 0 102.5 37t90.5 89t63.5 108.5t24.5 95.5q0 23 -4 40t-4 40q0 8 3 15t13 7t19.5 -10t15.5 -22.5t9 -26t3 -19.5 q0 -57 -14 -111.5t-31.5 -108.5t-32 -107.5t-14.5 -108.5q0 -6 1 -22.5t2 -35t2 -33.5t1 -22q8 -27 17.5 -48t17.5 -41.5t13.5 -43t5.5 -51.5q0 -6 -3.5 -19.5t-9.5 -25.5t-14 -21.5t-21 -9.5q-10 0 -13 6.5t-3 12.5q0 18 5 34.5t5 36.5q0 29 -18.5 78t-50 96.5t-72.5 82 t-86 34.5q-37 0 -60.5 -28.5t-38 -71.5t-20.5 -96.5t-8 -101.5q-1 -32 -1 -60v-27q1 -39 1 -53q0 -51 4 -103.5t19.5 -100.5t47 -90t87.5 -73q2 -2 19.5 -9t21.5 -9h4q12 0 63 5t110.5 13.5t111 18.5t63.5 20q25 16 37 42t18 55.5t8 58.5t5 51q0 20 2 53t4 64t4 54.5t2 25.5 q0 6 7 28.5t14 49t14.5 49t7.5 28.5q4 14 7 22.5t9 12.5t19.5 4h36.5q0 -68 -19.5 -136.5t-19.5 -137.5q0 -100 24.5 -199.5t65.5 -191.5q8 -18 23.5 -40t31.5 -44.5t28.5 -42t12.5 -31.5q-29 0 -62.5 3.5t-58.5 21.5q-166 49 -342 58t-354 9q-70 0 -136.5 -6t-136.5 -6 q-104 0 -159.5 44t-85.5 128z" />
<glyph unicode="F" horiz-adv-x="1388" d="M-66 1745l3 4q59 125 164.5 182.5t242.5 57.5q186 0 376.5 -16.5t377.5 -35.5q27 2 51.5 13.5t48 24t47 22.5t47.5 10q0 -37 -11 -65.5t-19 -65.5q-14 -70 -19.5 -141.5t-5.5 -141.5q0 -98 14.5 -184t48.5 -178q10 -23 32 -60.5t22 -64.5q0 -12 -11.5 -19.5t-23.5 -7.5 q-16 0 -30.5 25.5t-25 59.5t-17.5 65t-9 43q-35 109 -60.5 219.5t-72.5 199.5t-128 145t-224 56q-49 0 -93.5 -3t-78 -18.5t-54 -48t-20.5 -93.5v-56q0 -6 3 -26.5t8 -44t9 -44t4 -24.5v-66.5v-116v-115.5v-67q0 -18 3.5 -38.5t10.5 -38t21.5 -28.5t38.5 -11q49 0 98.5 28.5 t89 73.5t65.5 98.5t26 100.5q0 33 -22.5 58.5t-48.5 44t-48.5 30.5t-22.5 20q0 20 12.5 24.5t28.5 4.5q37 0 68 -20.5t52.5 -52t33.5 -67.5t12 -67q0 -117 -13 -228.5t-13 -228.5v-180q8 -29 22 -60.5t35.5 -57t48.5 -44t59 -18.5v-12q0 -29 -26.5 -34t-46.5 -5 q-61 0 -92 38t-48.5 96t-28.5 124.5t-34 125t-64.5 96.5t-119.5 38q-66 0 -93.5 -43t-27.5 -98q0 -129 7 -256q4 -81 4 -164q0 -48 -1 -96q8 -35 19.5 -81t32 -86t52.5 -66q26 -20 64 -20q10 0 21 1q6 -2 10 -11.5t2 -13.5q-2 -12 -21.5 -23.5t-33.5 -11.5q-10 0 -22.5 5 t-27.5 5q-66 0 -129 -35.5t-120.5 -89t-106.5 -116t-87 -115.5t-62.5 -89t-30.5 -36q-8 0 -15.5 2.5t-11.5 14.5q94 229 155.5 462.5t61.5 485.5q0 119 -7 235.5t-7 233.5q0 141 13.5 284.5t13.5 284.5q0 33 -1.5 83t-12.5 98.5t-38.5 82t-81.5 33.5q-31 0 -59.5 -18.5 t-53 -40t-43 -39t-28.5 -17.5q-6 0 -16.5 4.5t-10.5 16.5z" />
<glyph unicode="G" horiz-adv-x="1189" d="M55 877q-2 38 -2 81q0 53 3 112q5 108 24.5 220.5t53.5 224t88 206t128 163t174 96.5q61 23 133 23q20 0 41 -2q95 -8 180 -50t144 -114t65 -170q1 -19 1 -39q0 -49 -7 -98q-10 -70 -39.5 -125t-81 -90t-129.5 -35q-6 0 -33.5 1t-33.5 1q-4 2 -12.5 11.5t-10.5 13.5l-2 4 l2 8q14 16 26.5 21.5t25 5.5h29t38.5 6q37 10 61.5 41.5t40 70.5t21.5 80q5 31 5 56q0 8 -1 16q-2 45 -14 82t-31.5 68.5t-43.5 60t-48 61.5q-25 29 -51.5 32t-63.5 3q-90 0 -154.5 -37t-108.5 -98.5t-72.5 -139t-46 -160.5t-27 -163t-17.5 -143q-8 -72 -14 -142 q-4 -43 -4 -86q0 -29 2 -59q4 -86 28.5 -157.5t69.5 -123t111.5 -80t152.5 -28.5q74 0 136.5 37t107.5 94t69 129q22 62 22 123q0 10 -1 20q-2 31 -18.5 56.5t-20.5 54.5q0 10 2 18.5t19 5.5q20 -12 62 -35.5t85 -52t76 -60.5t35 -60q-23 0 -40.5 8t-43.5 8 q-39 0 -62.5 -20.5t-37 -51t-19.5 -67.5t-8 -70q-12 -147 -15.5 -297.5t-26 -295t-76.5 -275.5t-165 -242q-57 -49 -126.5 -69.5t-143.5 -20.5q-80 0 -139.5 35t-98.5 91t-59.5 125.5t-24.5 139.5q-2 21 -2 45q0 39 5 86q6 76 28.5 145.5t66.5 119t117 49.5q63 0 106.5 -34 t69 -84t37 -108.5t13.5 -107.5q2 -23 -11.5 -43.5t-34 -37t-46 -26.5t-48.5 -10q-2 27 11.5 46.5t29 38.5t28.5 43t13 58q-2 33 -12 71t-30.5 70.5t-50.5 55t-68 22.5q-43 0 -67 -26.5t-36 -65.5t-14 -81q-1 -21 -1 -39t1 -33q4 -47 8 -83t14 -85q10 -39 42 -77t74 -68.5 t86 -50t81 -19.5q84 0 145.5 49t104.5 128t67.5 176t38 193.5t15.5 182.5q1 29 1 54q0 50 -3 87v33q-51 -25 -97.5 -51.5t-93.5 -50t-97 -39t-110 -15.5q-106 0 -191 46t-145.5 121t-94.5 168t-38 190z" />
<glyph unicode="H" horiz-adv-x="1464" d="M-102 1952q2 2 5 6t5 6h6q86 0 170 -19.5t172 -19.5q74 0 157 9.5t154 17.5q4 0 20.5 3t35 7t35 8t20.5 6h27q4 0 17 1t15 -13q-41 -49 -76.5 -74.5t-64.5 -50t-52.5 -59.5t-39.5 -101q0 -14 -3 -51t-5 -78t-5.5 -78.5t-3.5 -52.5q-4 -70 -7 -131q-3 -60 -4 -122v-42 q0 -42 1 -82q2 -62 8 -131q8 4 32 15.5t49.5 24t49 22.5t33.5 14q6 2 34 10.5t59.5 18.5t59 19t34.5 14q10 2 32.5 11t46 18t44 17.5t26.5 10.5q12 6 28.5 16.5t32 19.5t27.5 17t12 10l17 23q0 2 3 32.5t5 47.5q4 104 6 194q1 30 1 63q0 65 -3 140q-12 63 -48 99t-101 36 q-35 0 -58.5 -12t-43 -27.5t-37 -28t-38.5 -12.5l3 31q0 2 8 11.5t20 21.5t25.5 22.5t21.5 16.5q39 29 91.5 44t108.5 26.5t110.5 20.5t97.5 24q16 4 47 20t63.5 33.5t62.5 32t44 14.5l-2 -29q-74 -63 -124 -142t-54 -175q-12 -231 -16.5 -459.5t-10.5 -458.5 q-4 -158 -6 -307v-21q0 -139 25 -284q2 -4 11 -15.5t20.5 -22.5t21.5 -21.5t16 -12.5q8 -8 23.5 -13t31 -11.5t26.5 -15.5t11 -27q0 -20 -22 -21q-29 0 -54.5 8.5t-52.5 8.5q-53 0 -116.5 -29t-125 -71t-116.5 -89t-88 -82q-2 -2 -10.5 -13t-17.5 -24.5t-17 -25t-10 -13.5 t-6.5 -5t-6.5 -5h-6h-6q-2 2 -6 5t-4 5t5 16.5t7 20.5q57 129 105.5 254t84 252t59 259t30.5 274q4 78 7 152q1 24 1 49q0 51 -4 106q-4 0 -19.5 -5t-19.5 -7q-25 -10 -73 -28t-107.5 -38t-123 -43t-120 -45.5t-97 -43t-53.5 -34.5q0 -8 -2 -28.5t-3 -43t-3 -43t-2 -26.5 q-4 -70 -7 -142q-2 -36 -2 -73t2 -74q3 -74 15.5 -144.5t36.5 -136.5q10 -27 28.5 -51t35 -48.5t29 -51.5t9.5 -57q-23 0 -41 6t-40 6q-63 0 -133 -27.5t-137.5 -69.5t-127 -91.5t-102.5 -90.5h-23l2 37q129 203 197 406.5t80 437.5q0 12 1 32.5t3 42t3 38t1 18.5 q0 23 1 93.5t2 163.5t3 197.5t3 197.5t2 163t1 92q0 90 -35.5 149.5t-93 101.5t-128 70.5t-138.5 55.5z" />
<glyph unicode="I" horiz-adv-x="1067" d="M80 2017v4q0 10 9 17.5t21.5 11.5t22.5 6t14 2h629q16 0 48 -7t63 -21.5t54.5 -33t23.5 -40.5q0 -10 -9.5 -15.5t-19.5 -5.5q-33 0 -61.5 14.5t-63.5 14.5q-37 0 -73 -12.5t-54 -40.5q-39 -139 -41 -281.5t-3 -283.5q0 -293 20 -578t34 -578q2 -8 12.5 -26.5t22.5 -38 t24.5 -33.5t22.5 -14h225q2 0 12.5 -13.5t16.5 -21.5v-6q0 -10 -9 -17.5t-21.5 -11.5t-23.5 -5t-15 -1h-627q-16 0 -48 7t-62.5 21.5t-53.5 33.5t-23 42q0 8 8.5 13.5t18.5 5.5q35 0 64.5 -14.5t64.5 -14.5t69 12.5t56 41.5q29 106 36 214.5t7 217.5q0 324 -18.5 645 t-34.5 645q-4 6 -14.5 24.5t-22.5 38t-24.5 35t-22.5 15.5h-225q-2 0 -11.5 11t-15.5 19q-2 0 -2 2z" />
<glyph unicode="J" horiz-adv-x="1214" d="M23 121q0 45 7 104.5t35.5 111.5t86 88t159.5 36q49 0 83 -17.5t54.5 -43t29.5 -54.5t9 -53q0 -12 -1 -32.5t-1 -22.5q0 -4 -5 -29t-19 -33h-2q-25 0 -25 21q0 23 8.5 46t8.5 50q0 20 -7.5 44.5t-24 45t-46 34t-72.5 13.5q-68 0 -112 -22.5t-69.5 -57.5t-35.5 -76 t-10 -77q0 -84 38 -162t111.5 -138.5t184 -96.5t256.5 -36q166 0 255 68t89 174q0 53 -7.5 125t-29.5 129q-14 39 -36 82t-43.5 86t-37.5 87t-18 87l-48 954q0 6 -4 23.5t-7 37t-6 37t-3 23.5q-2 6 -5 22.5t-5 35t-4 33t-2 18.5q-4 23 -13.5 53.5t-30 58t-53 47t-80.5 19.5 h-18q-6 -4 -10 -6l-12 -4q-16 4 -23.5 12t-7.5 14v13q16 0 56 1t83 2t81 2t54 3q96 4 173 17.5t169 27.5h2q12 0 22.5 -4t10.5 -14q0 -8 -19.5 -16.5t-44 -19t-49 -22.5t-34.5 -24q-29 -31 -39.5 -67t-13.5 -73q-2 -28 -2 -55v-19v-14q0 -28 -3 -53q-6 -6 -11 -33.5 t-5 -38.5v-80v-83q2 -16 6 -76t9 -128.5t8.5 -128t3.5 -73.5q4 -86 14 -163t26.5 -151.5t42 -149.5t60.5 -154q16 -41 35.5 -76t37 -69t29 -69.5t11.5 -76.5q0 -96 -31 -185.5t-102.5 -159t-190.5 -110.5t-295 -41q-147 0 -256 48t-179.5 123t-105 163t-34.5 168z" />
<glyph unicode="K" horiz-adv-x="1628" d="M-113 -393l2 6q37 47 81 90t87 88t83 91t71 100q29 53 40 115.5t15 123.5q0 37 2 101.5t3 131t2 119t1 62.5q0 37 -3 112.5t-6 171t-8 202t-9 201.5t-8 172t-7 114q0 2 -1 8t-1 8q-2 4 -2 11v10q-18 70 -39.5 109.5t-42 59t-41 23.5t-37 5t-29.5 3t-20 17q0 2 -1 5t-1 7 q-2 10 3.5 15t13.5 7t17 2h18q29 0 59.5 -6t60.5 -6q104 0 195.5 25.5t177.5 83.5q14 12 23.5 22.5t18.5 17.5t20.5 12t31.5 5q2 -25 -16 -50.5t-43 -49t-48.5 -45t-31.5 -35.5q-35 -51 -51 -126t-16 -138v-547h90l15 8t35.5 19.5t41 23.5t33.5 21q39 25 82 80t83.5 126.5 t75.5 154.5t61 163q26 81 38 149q9 52 9 91q0 13 -1 24q-4 23 -21.5 41t-42.5 18q-23 0 -41 -6t-41 -6q-6 39 17.5 56.5t64.5 17.5q63 0 97 -35t51.5 -87t22.5 -110.5t12 -105.5q3 -23 3 -48q0 -32 -6 -70q-10 -66 -31.5 -130.5t-53 -121t-64.5 -91.5q-10 -12 -27.5 -23.5 t-36 -22.5t-34 -23.5t-21.5 -26.5q0 -2 4 -8t6 -6q125 -72 208 -170.5t100 -243.5v-23q-10 -150 -43 -296t-68 -287q-2 -4 -6 -16.5t-9 -27t-9.5 -27.5t-4.5 -15q-10 -45 -12 -101q-1 -28 -1 -51t1 -41q8 -109 72.5 -172t175.5 -63q76 0 128 37.5t84 100t47 139.5t19 155 q2 39 2 76t-2 73q-4 70 -10 119q0 4 -1 8t-1 10q-2 6 -2 15q-4 8 -14 30.5t-23.5 48t-25 47t-17.5 31.5q-2 2 -2 9.5t-2 9.5q-2 16 8.5 41.5t30.5 25.5q25 0 43 -13t31.5 -33.5t24 -44t18.5 -44.5q0 -6 2 -19t5 -28.5t5 -29t2 -19.5q7 -59 7 -130v-18q-1 -82 -12 -169.5 t-36.5 -170.5t-68.5 -147.5t-104.5 -104.5t-145.5 -40q-55 0 -109.5 16.5t-99.5 47t-76 77t-37 105.5q-8 66 -8 132q0 27 1 54q5 92 13 183t14 183q2 28 1 56q0 65 -9 131q-6 57 -29.5 137t-63.5 152.5t-99 123t-137 50.5q-90 0 -158 -49q-7 -74 -7 -148t7 -149 q14 -150 33 -299q2 -8 5 -31t6 -48.5t6 -48t3 -30.5q20 -78 56 -121t102 -96l-8 -10q-33 3 -65 3q-85 0 -163 -23q-106 -32 -199 -89t-175 -133t-154 -150q-4 0 -13 4.5t-14 6.5q-2 0 -2 2v4z" />
<glyph unicode="L" horiz-adv-x="1662" d="M23 211q0 31 9 77t29.5 89t50 73.5t70.5 30.5q37 0 63.5 -25.5t26.5 -60.5q0 -10 -2 -22.5t-18 -12.5h-6q-2 2 -9.5 8.5t-15.5 13.5t-16 13t-10 6h-7h-4q-2 0 -2 2q-29 0 -47 -31.5t-18 -56.5q0 -94 48 -161.5t140 -67.5q63 0 100 30.5t56.5 77t26 102.5t8.5 105 q-2 29 -4.5 87.5t-5.5 133t-6 156.5t-5 157t-5 134t-3 88v75.5v128.5v127v75q0 16 -3 57t-7 86t-8.5 86t-6.5 57q-4 14 -14 31.5t-25.5 34t-33 28t-31.5 11.5h-182q-23 0 -26 10t-3 23v10t2 10q18 2 64.5 4t97.5 3t98 3t66 2h17t35.5 1t40 1h30.5h28.5t37 -1t32.5 -1h16 q10 0 30.5 -2t43 -3t41 -3t24.5 -4q10 -2 35 -10t49.5 -19.5t44 -27t19.5 -29.5q0 -10 -8 -16.5t-19 -6.5q-33 0 -59.5 16.5t-58.5 16.5q-78 0 -110 -38t-46 -109q-4 -25 -8 -87.5t-9.5 -133t-8.5 -134t-3 -90.5q0 -12 2 -48t5 -84t7.5 -102t7.5 -102.5t5 -84t2 -48.5 q8 -178 12 -351t27 -353q10 -37 47 -57.5t67 -32.5q6 0 18.5 -1t28 -1t29 -1t19.5 -1q100 0 177 15t135 52t99 99.5t70 156.5q12 39 21.5 68t15.5 56.5t9 57t3 70.5q0 33 -19.5 82t-51 95t-72.5 80t-82 34q-27 0 -51.5 -14.5t-44 -37t-30.5 -50t-11 -52.5v-6q2 -12 8 -31.5 t21.5 -40t43 -40t72.5 -29.5q10 0 12 -11.5t2 -17.5q0 -23 -23.5 -31t-43.5 -8q-41 0 -70 16.5t-48 43t-28.5 59.5t-9.5 68q0 55 18.5 105t53.5 88t82 59.5t106 21.5h8q61 0 114 -28q56 -30 99 -82t73 -120q30 -70 42 -146q8 -54 8 -109q0 -23 -1 -46q-5 -79 -29 -151 q-39 -49 -89.5 -111.5t-111 -119t-128 -95t-140.5 -38.5q-102 0 -200.5 7t-199.5 7q-104 0 -201.5 -8t-197.5 -8q-57 0 -113.5 11t-100.5 37.5t-71.5 70.5t-27.5 110z" />
<glyph unicode="M" horiz-adv-x="1695" d="M-47 -39q2 16 11 34.5t44 29.5q20 2 42 2t40 8q31 8 50.5 27.5t31.5 44t17.5 53t9.5 55.5q10 86 21 169t20 169q10 14 11 30.5t7 32.5q39 172 58.5 346.5t30.5 349.5t21.5 350t28.5 347q10 10 23.5 8t25.5 0q27 -4 40.5 -20.5t16.5 -39t0 -48t-7 -43.5l2 -8l-13 -21 l2 -20l-4 -5q4 -53 12.5 -105t18.5 -105q53 -150 95 -301.5t71 -309.5q14 -72 25.5 -145.5t27 -146t39 -142.5t62.5 -133l12 -8q4 8 7 15t7 15q27 80 48.5 162t49.5 162q31 94 69 185.5t67 187.5q61 168 82.5 344t37.5 354q6 31 16.5 59.5t18.5 57.5q10 4 20.5 5t22.5 1 q6 -4 11.5 -4t11.5 -4q-14 -82 -14 -163q0 -37 3 -73q9 -118 30.5 -235t46 -234.5t34.5 -234.5q2 -18 2 -34.5v-35.5q18 -164 39 -325.5t43 -325.5q-4 -10 -2 -17.5t4 -17.5q10 -33 20.5 -63.5t16.5 -65.5q6 -23 21.5 -39t33 -30.5t32.5 -30t22 -35.5l2 -14l-11 -17 q-23 -1 -46 -1q-66 0 -130 8q-86 12 -174 22l-35 -2l-32 14l-21 29q2 14 12.5 19t23.5 8.5t29.5 6.5t32.5 13q14 16 18.5 36.5t8.5 41.5q2 32 2 64q0 40 -3 80q-5 72 -14.5 143t-19.5 143t-18 143q-14 135 -21.5 269.5t-25.5 269.5l-13 41q-53 -162 -100 -326t-96 -328.5 t-101.5 -327.5t-113.5 -323l-25 -8q-23 -4 -37 15.5t-18 39.5q-16 82 -35.5 162t-36.5 160l-8 29l-74 278t-71 281q-10 57 -21.5 110t-25.5 109v-2l-9 -19q-33 -207 -65.5 -410.5t-55.5 -412.5q4 -53 6.5 -106.5t6.5 -106.5q4 -35 28.5 -52.5t54 -30.5t56.5 -28.5t35 -46.5 q-46 1 -92 1q-92 0 -184 -5t-184 -5q-46 0 -93 1z" />
<glyph unicode="N" horiz-adv-x="1402" d="M41 49q0 25 15.5 30t38 8t48 8t45.5 30t28.5 62.5t11.5 79.5t3 81t5 66q18 188 23 375.5t8 374t8.5 373.5t23.5 376q10 12 31.5 21.5t38.5 9.5q25 0 55.5 -11.5t36.5 -29.5q2 -12 9 -47t15.5 -73t15.5 -72t9 -46q2 -8 9 -29.5t16.5 -46t17.5 -47t14 -35.5q0 -2 5.5 -9 t5.5 -9l321 -610q2 -6 7 -20.5t12.5 -30t16.5 -29t21 -17.5q-1 33 -1 66q1 78 7 154q10 108 9 219v34q-4 8 -6 44t-4.5 77t-3.5 77t-1 44v145q-6 61 -18 104.5t-40 74t-78 50t-132 32.5q-10 10 -12 14t-2 12q0 18 18.5 23.5t36.5 7.5q4 2 23.5 3t42 3t42 3t23.5 1q8 0 38 4 t65.5 9.5t70.5 9.5t53 8q39 6 67 9t52.5 5t51 3t67.5 2q23 0 39 -9.5t16 -25.5q0 -10 -20.5 -18.5t-51 -19t-67.5 -24.5t-67.5 -36.5t-52 -54.5t-21.5 -75l-6 -358v-45q0 -176 -10.5 -347t-10.5 -345q0 -104 6 -209t21 -211q0 -6 4 -30t9 -49.5t10 -48t10 -28.5v-18 q0 -18 -12.5 -28.5t-47.5 -10.5q-4 0 -14 4t-10 8l-27 102q-8 2 -16.5 28t-15.5 57.5t-12 60t-7 39.5q-70 143 -141.5 288.5t-155.5 282.5q0 2 -6 10.5t-13 8.5q-4 8 -22.5 45.5t-40 79.5t-41 79t-25.5 45q-16 35 -36.5 64t-28.5 61v-1030q0 -45 7 -73.5t23.5 -52t44 -44 t68.5 -49.5v-14q-14 -35 -72 -39q-26 -2 -55 -2q-35 0 -77 3q-74 5 -150 12q-35 3 -65 3q-34 0 -60 -4q-33 4 -58.5 11t-25.5 36z" />
<glyph unicode="O" horiz-adv-x="1273" d="M57 1008q2 96 19.5 208.5t50.5 227.5t82 222.5t116.5 190t153.5 133t193 50.5q115 0 200.5 -45t149 -122t104.5 -177.5t64.5 -212t31.5 -225.5q6 -78 6 -151q0 -34 -1 -67q-4 -104 -18.5 -222t-44 -233.5t-76 -222t-112 -187.5t-152.5 -129t-197 -48q-113 0 -200 45 t-151.5 121t-108.5 177t-69.5 213t-35.5 228q-7 82 -6 161q0 33 1 65zM285 972.5q0 -104.5 9 -224t30.5 -240.5t63.5 -219.5t107.5 -159.5t161.5 -61q80 0 140.5 62.5t102.5 159.5t68.5 219t43 239.5t23.5 220t9 161.5v31q0 49 -4 115q-6 88 -21 184t-43 191.5t-72 171 t-104.5 123t-142.5 47.5q-63 0 -115.5 -49.5t-92 -127t-69.5 -174t-49.5 -190.5t-30.5 -177t-13 -132q-2 -66 -2 -170.5z" />
<glyph unicode="P" horiz-adv-x="1130" d="M-16 1942v6q0 2 3 7t5 5q80 0 156.5 8t153.5 17.5t155 17.5t155 8q236 0 379.5 -127t173.5 -364q5 -40 5 -78q0 -54 -10 -106q-17 -88 -59 -163t-102.5 -139.5t-134.5 -113.5q-57 -37 -113.5 -65t-107.5 -54.5t-92 -56t-67 -70.5q-26 -42 -38 -100q-6 -29 -6 -63 q0 -36 6 -79q10 -72 26.5 -143.5t59.5 -132.5q12 -18 24.5 -24.5t23 -12.5t17.5 -15.5t11 -29.5q0 -4 1 -22.5t-9 -20.5q-23 16 -47.5 26.5t-50.5 10.5q-92 0 -163 -17.5t-142 -68.5q-8 -6 -23.5 -29t-32 -47.5t-32 -43t-23.5 -18.5h-6q-4 2 -9 6.5t-5 6.5q-2 12 17 49 t45 81t48.5 84t26.5 58q33 152 47 306.5t16 312.5q1 45 1 90q0 113 -4 225q-5 158 -7 315q0 10 1 52.5t1 90.5t-1 90t-3 52q-4 55 -24.5 104.5t-55.5 86t-83 59t-105 24.5zM391 1577q0 -27 2 -74l4 -94t5.5 -85t3.5 -44q2 -29 11 -99.5t18 -149.5t17.5 -148.5t12.5 -96.5h33 l17 10q17 9 42 23.5t49.5 27.5t40.5 23q88 55 149.5 141.5t95.5 188.5q34 104 42 216q3 41 3 80q0 70 -9 136q-8 57 -33 115.5t-63.5 106t-91 78t-115.5 30.5q-82 0 -129 -35t-72 -90t-31 -123q-4 -41 -4 -83q0 -27 2 -54z" />
<glyph unicode="Q" horiz-adv-x="1183" d="M57 864q0 86 10.5 204t36 246t68.5 254t108.5 229.5t156.5 171t212 77.5q14 1 28 1q77 0 138 -38q72 -45 123 -122t85 -176t54.5 -199.5t28.5 -191.5t8 -153v-41.5t-1 -50t-1 -43v-20.5q-10 -96 -27.5 -176t-40 -155t-51 -148.5t-61.5 -159.5v-11v-8q23 -74 77 -134 t103 -118q12 -16 32.5 -39.5t41.5 -46.5q23 -25 49 -53v-37q-43 27 -80 56.5t-75 52t-82 33.5q-24 7 -51 7q-25 0 -52 -5l-53 123l-4 2q-18 0 -47 -29t-69 -62.5t-96.5 -61.5t-129.5 -28q-92 0 -162 45t-118 117t-79 164t-49 186.5t-24.5 183.5t-6.5 154zM270 991 q0 -37 1 -74.5t1 -67.5v-34q2 -37 14.5 -96.5t33 -129t48 -140t62.5 -128t77 -93t89 -35.5q27 0 54.5 18t51 46t39 59.5t15.5 56.5q0 2 -7.5 15t-11.5 20q-6 8 -18 27.5t-26.5 42t-27 43t-16.5 28.5l-4 4q-2 2 -2 6l2 4q2 2 4 2q2 8 15.5 21.5t19.5 15.5h8h10q4 -2 17.5 -11 t28 -21.5t25.5 -22.5t15 -17q23 10 38.5 61.5t24.5 121t15 149.5t8.5 151.5t3.5 125t1 69.5v56q-2 18 -8.5 71.5t-14.5 115.5t-16.5 120.5t-12.5 85.5q-6 41 -27.5 88t-54 86t-75.5 64.5t-92 25.5h-19q-92 -80 -148.5 -182.5t-88 -217t-42 -235t-10.5 -235.5v-60z" />
<glyph unicode="R" horiz-adv-x="1488" d="M-27 1948q0 25 29 26h66q78 2 154.5 13.5t153.5 22.5t153.5 20.5t156.5 9.5q117 0 213 -33t167 -96.5t113 -155.5t52 -211q3 -36 3 -71q0 -93 -24 -175q-32 -112 -118 -213q-4 -4 -23.5 -21t-42 -35.5t-42 -36t-26.5 -21.5q-4 -4 -12 -12.5t-17 -19.5t-16.5 -20.5 t-7.5 -13.5v-6q0 -8 9.5 -34.5t20.5 -59.5t20.5 -64.5t11.5 -50.5q2 -8 5 -32.5t5 -53.5t4 -52.5t2 -29.5q2 -12 7 -44t10.5 -67.5t9.5 -66.5t4 -43q8 -43 19 -91t31.5 -87t53.5 -64.5t86 -25.5q61 0 98 38t56 94q18 55 22 119q2 25 2 49q0 35 -4 64q0 14 -7 42t-19.5 54.5 t-29.5 46t-38 19.5q-53 0 -76.5 -23.5t-31.5 -60.5q-7 -30 -8 -63q0 -8 1 -16q2 -42 5 -79q-39 0 -45.5 25t-8.5 55q-1 15 -1 30q0 23 2 47q3 40 16.5 74t41 55.5t74.5 21.5q59 0 96 -35t60 -84t33 -105.5t14 -99.5q1 -18 2 -40q0 -43 -6 -99q-8 -84 -34.5 -161t-76 -132 t-129.5 -55q-43 0 -76.5 19.5t-74.5 43.5q-57 41 -91 121t-54.5 178t-34 200.5t-27.5 186.5t-34.5 138.5t-57.5 54.5q-20 0 -33.5 -3t-32.5 -14q-12 -8 -43.5 -26.5t-66.5 -39t-68 -38t-45 -23.5q-16 -12 -23.5 -38.5t-9.5 -55.5t-1 -57.5t1 -44.5q6 -72 26.5 -150 t63.5 -143q12 -20 25.5 -27.5t26 -15.5t20.5 -22.5t12 -47.5v-2q-2 -6 -10 -17t-10 -11q-6 0 -27.5 11t-25.5 17h-92q-92 0 -160 -23.5t-137 -80.5q-12 -8 -24.5 -29.5l-25 -43t-27 -39t-30.5 -17.5q-27 0 -27 20l-2 2q-2 0 -2 2q104 160 159.5 328t70.5 367q2 50 2 100 q0 52 -2 102q-1 18 -1 36q0 83 15 163q-2 20 -3 65.5t-2 102.5t-2 119.5t-1 120v102.5v68q0 6 1 32.5t3 57t3 57.5t1 33v12q-6 68 -28.5 112t-53.5 70.5t-66.5 42t-65.5 23.5t-49.5 15t-21.5 20zM400 1550q3 -108 10 -194q2 -8 7 -38t11 -64.5t11 -64.5t7 -38 q0 -18 4.5 -65.5t9.5 -101.5t9 -102.5t4 -66.5t6 -22.5t19 -4.5q20 0 42.5 9.5t45 23t42 27.5t34.5 22q92 59 156.5 145.5t101.5 188.5q36 104 48 214q8 67 8 133q0 43 -3 85q-6 59 -27.5 120t-58.5 109t-89.5 78.5t-119.5 30.5q-117 0 -176.5 -64.5t-81.5 -158.5 q-20 -83 -20 -176v-25z" />
<glyph unicode="S" horiz-adv-x="1179" d="M31 330q4 72 24.5 154.5t61.5 152.5t103.5 116t150.5 46q80 -1 130 -53q46 -49 46 -124v-12q0 -4 -1 -15t-3 -21.5t-6.5 -18.5t-10.5 -8q-2 0 -4 1t-4 1v11q0 26 -7 58q-9 38 -28.5 70.5t-48 55t-65.5 22.5q-66 0 -105 -34t-60.5 -85t-30.5 -109.5t-11 -107.5 q-1 -19 -1 -39q0 -56 8 -120q11 -87 45 -163.5t93.5 -129t151.5 -52.5t180 41t158.5 107.5t115.5 152.5t52 176q1 18 1 36q0 81 -23 137q-28 69 -77 114t-115.5 75t-136 57.5t-138 60t-124.5 84.5q-113 109 -162 249q-40 114 -40 243q0 29 2 59q6 86 53 173t118.5 156.5 t159.5 113.5t176 44q72 0 131.5 -31.5t101.5 -83.5t64 -118q18 -55 18 -113q0 -11 -1 -21q-4 -72 -34 -120t-76 -75.5t-104.5 -38.5t-121.5 -11q0 12 26.5 29.5t60.5 39t64.5 45t40.5 47.5q14 29 17.5 63t5.5 66q0 10 1 38t1 36q-25 66 -76 118t-129 52q-68 0 -130 -29.5 t-111.5 -79t-81 -113t-35.5 -130.5q-1 -8 -1 -16q0 -53 24 -110q26 -65 61 -110q47 -57 106.5 -116.5t128.5 -87.5q119 -45 208 -71t153.5 -66t105.5 -112.5t62 -211.5q2 -23 3 -38t1 -29.5v-28t-2 -33.5q-10 -145 -72.5 -274.5t-163 -225.5t-233 -152.5t-279.5 -56.5 q-90 8 -159.5 54.5t-115.5 116t-68 154.5q-19 72 -20 144q0 12 1 25z" />
<glyph unicode="T" horiz-adv-x="1667" d="M37 1133v14q20 61 37.5 117.5t30 112t19.5 113.5t7 126q0 74 -5 144.5t-15 140.5q0 10 -5.5 28.5t-5.5 20.5t-3 12t-7 21.5t-7 20.5t-5 11q-2 18 5 22.5t17 4.5q6 0 20.5 -9.5t33 -20.5t40 -21.5t39.5 -14.5h7q129 0 253.5 19.5t251.5 19.5q162 0 322 -20.5t324 -20.5h18 t29.5 1t30 1h18.5q6 8 30.5 26.5t30.5 22.5q2 0 4 3q4 4 9 4q20 0 20 -31v-12q-25 -96 -39 -186.5t-14 -198.5v-33q2 -14 4 -40t3 -52.5t3 -47t2 -22.5q0 -4 8 -32.5t17.5 -65.5t19.5 -73t17 -54q4 -4 12 -25.5t8 -23.5t1 -6.5t1 -6.5q0 -16 -7 -21t-22 -5q-16 0 -30.5 31.5 t-27.5 82t-24.5 111.5t-21.5 118.5t-18.5 103.5t-14.5 69q-90 307 -344 307q-23 0 -55.5 -2t-61 -13.5t-49 -36t-20.5 -69.5v-1446q0 -98 38 -169.5t115 -82.5q4 -4 4 -13v-13q0 -23 -10 -29t-26 -6q-12 0 -21.5 4t-19.5 4q-55 0 -107.5 -35t-100.5 -88t-90 -114.5 t-75 -114.5t-54.5 -88t-27.5 -35q-21 0 -21 25q0 18 6.5 40.5t15.5 47t18.5 47t13.5 41.5q41 137 80 278.5t43 288.5v717q4 150 13 297t9 295v176q-12 43 -31.5 64.5t-46 30.5t-56.5 9h-60h-70t-68 -12q-2 0 -14 -11.5t-18 -17.5q-12 -14 -31 -35.5t-37 -46t-35.5 -49 t-30.5 -43.5q-10 -18 -23 -69.5t-27.5 -119t-30 -141t-29.5 -135t-28.5 -101.5t-24.5 -40q-12 0 -22.5 4t-10.5 21z" />
<glyph unicode="U" horiz-adv-x="1437" d="M61 1929v10q2 2 10.5 14.5t18.5 25t20.5 22.5t18.5 10q37 0 83 -16.5t93 -38t92 -42t84 -28.5q4 0 25.5 -3t48.5 -6t53.5 -6t38.5 -3q14 -2 30.5 0t29 0t20.5 -10.5t6 -28.5q-2 -23 -33.5 -45.5t-69.5 -56t-73 -84t-43 -125.5q-6 -63 -11 -180t-5 -258.5t6 -293 t22.5 -283.5t45 -228.5t73.5 -127.5q25 -16 53.5 -19t59.5 -3q51 0 92 23.5t72.5 61.5t55 85t40.5 96q2 14 6 50t9 76l9.5 76t4.5 52q29 258 31 505v22q0 236 -31 477q-6 43 -26 87t-40 87q-21 43 -37 79q-15 33 -14 58v6q0 8 10 19.5t22.5 20.5t25.5 16.5t22 7.5 q12 0 34.5 -15.5t47 -36t46 -38t29.5 -19.5q16 -6 55.5 -9t78 -11.5t67.5 -27t27 -50.5q0 -2 -15.5 -21.5t-34 -43t-35 -45t-18.5 -27.5q-2 -14 -6 -53.5t-10 -82.5t-12.5 -81.5t-8.5 -53.5q-16 -174 -23 -343t-28 -343q-2 -14 -6 -48t-8 -71t-8 -70.5t-6 -45.5 q-8 -14 -27 -50t-40.5 -76t-39.5 -77t-27 -51q-18 -35 -49.5 -76t-69.5 -76t-81 -58.5t-84 -23.5q-109 0 -180.5 31t-115.5 84t-65.5 123.5t-33 150.5t-15.5 166t-12 168q-2 2 -7 25.5t-5 27.5q0 18 -3.5 56.5t-5.5 86.5t-5 101t-5 101.5t-4 86.5t-2 56q8 51 10 141v36 q0 73 -6 147q-8 92 -27.5 168.5t-52.5 105.5q-10 12 -37.5 16t-55.5 8t-49.5 11.5t-19.5 25.5z" />
<glyph unicode="V" horiz-adv-x="1513" d="M23 1870q0 12 4 24.5t16 20.5q88 23 175 32t179 9q49 0 82 -3t58.5 -12.5t50 -27t59.5 -47.5q16 -12 18.5 -15.5t2.5 -19.5q0 -27 -27 -27q-16 0 -34.5 11.5t-38 24.5t-38 22.5t-34.5 3.5q-23 -10 -27 -23.5t-4 -30.5q0 -78 29.5 -148.5t50.5 -141.5q35 -117 72.5 -226.5 t78.5 -224.5q14 -39 31.5 -105.5t38 -133t41 -120t41.5 -65.5q2 0 5 4t5 4q4 10 11.5 33t7.5 29q8 31 26.5 109.5t38 166.5t35.5 168t22 111q2 14 8.5 55t12.5 86t12 85t8 56q0 82 -29.5 118t-66.5 49.5t-66.5 17.5t-29.5 24q0 10 3 18.5t19 12.5q0 2 22.5 6t35.5 4 q74 10 145.5 26.5t136.5 55.5q20 10 47 36t56.5 51.5t57.5 45t50 19.5q16 0 24.5 -4t8.5 -23q0 -18 -10 -35.5t-25.5 -33t-31 -28.5t-25.5 -28q-98 -135 -158.5 -276.5t-103.5 -296.5q-47 -217 -101.5 -458t-89.5 -470q0 -6 -3 -32.5t-7 -57.5t-7 -57.5t-3 -32.5 q-2 -12 -8.5 -46t-12.5 -71t-12 -69.5t-8 -45.5q-2 -10 -13.5 -10h-17.5q-10 0 -22.5 1.5t-8.5 19.5q-8 154 -42.5 295t-75.5 286q-14 47 -23.5 98.5t-38.5 94.5l-100 313q-2 2 -10.5 13.5t-8.5 15.5q-27 74 -59.5 177t-73.5 207.5t-90 197t-108 143.5q-4 4 -12.5 6t-10.5 4 q-6 0 -20.5 1t-29.5 3t-29.5 3t-20.5 1q-8 4 -9 11.5t-1 15.5z" />
<glyph unicode="W" horiz-adv-x="1488" d="M-20 1894q0 10 1 17.5t7 15.5q23 2 78 6t116.5 8.5t115.5 8.5t77 6q2 0 15 3t18 3q4 0 18 -3t18 -3q20 -8 21 -29q0 -20 -18.5 -24.5t-41 -13.5t-41 -30.5t-18.5 -74.5q0 -137 28.5 -275.5t51.5 -273.5q2 -20 8 -61t13.5 -94.5t16.5 -111t16 -110.5t13.5 -94t10.5 -62 l10 -40l256 1286q2 0 6 2q4 0 7 1t8 1q31 0 47 -17.5t20 -44.5q2 -12 13.5 -60t23.5 -103.5t22.5 -104.5t12.5 -61q0 -4 3 -14.5t5 -14.5q8 -33 25.5 -114t36 -172t36 -172t23.5 -113q2 -12 6 -44t9 -66t9 -65.5t4 -44.5l9 19l149 842v219q0 37 -23.5 54t-52 30.5t-52 28 t-23.5 42.5q147 0 290.5 12.5t288.5 11.5q0 -33 -11 -45.5t-29.5 -18t-42 -7.5t-48.5 -10q-59 -23 -112.5 -72t-67.5 -114l-57 -349q-4 -16 -10.5 -34.5t-12.5 -34.5q-29 -162 -61.5 -321.5t-60 -321.5t-47 -324t-26.5 -328q-2 -10 -10 -10h-14q-16 0 -24.5 19.5t-10.5 45 t-1 51.5t1 38t4 23.5t4 23.5v4q0 12 -3 43t-6 63.5t-6 62.5t-3 40q-6 29 -21.5 102.5t-33 155.5t-33 155.5t-21.5 102.5q-31 147 -56.5 299t-82.5 293q0 2 -3 6t-5 4l-10 -29q-4 -18 -12.5 -63t-17.5 -95t-18.5 -95.5t-11.5 -61.5q-4 -14 -16 -68.5t-27.5 -116t-29 -114.5 t-15.5 -68q-23 -102 -36 -196t-20 -187.5t-10 -187.5t-6 -199l-18 -112q-2 -6 -14.5 -7t-16.5 -1q-14 0 -20 8q2 38 2 75q-1 91 -11 180q-14 126 -38.5 251t-54 248.5t-56.5 246.5q0 2 -2 13.5t-3 22.5t-2 21.5t-1 12.5q-6 23 -15.5 71t-22.5 107t-26.5 127t-26.5 127 t-23.5 107.5t-16.5 70.5q0 4 -3 16.5t-5 14.5q-4 6 -10.5 22.5t-14.5 35t-15 36t-9 25.5q-10 20 -31 35.5t-43.5 27.5t-38.5 24.5t-16 26.5z" />
<glyph unicode="X" horiz-adv-x="1529" d="M45 -125q2 10 20.5 25.5t41 32t46 30.5t33.5 25q61 51 107.5 105t82.5 110.5t65.5 115t58.5 119.5q23 49 49 98.5t50 99.5t42 100t25 100q2 15 2 29q0 21 -4 41q-6 34 -15.5 68t-23 67.5t-25.5 66.5q-8 29 -15 60.5t-30 58.5l-76 194q-4 2 -11 9.5t-7 9.5 q-18 45 -43 109.5t-56.5 130t-74.5 123t-99 87.5q-4 2 -10 4t-10 2q-6 0 -19.5 1t-29 2.5t-28.5 2.5t-19 1q-14 0 -11 16q0 6 6.5 15.5t16.5 13.5q88 14 175 19t177 5q49 0 81 -1t56.5 -7t48 -17.5t56.5 -31.5q14 -10 16 -11t0 -10q-2 -18 -26 -18q-16 0 -34 7t-35 15.5 t-34.5 13.5t-34.5 3q-25 -6 -29.5 -14.5t-4.5 -18.5q-1 -9 -1 -18q-1 -37 19 -73q24 -44 37 -89q27 -72 55.5 -141.5t63.5 -139.5q10 -25 22.5 -65.5t26.5 -82.5t30.5 -76t32.5 -40q4 0 8.5 3t6.5 5q4 4 13 17.5t13 17.5q8 20 31 69.5t48.5 103.5t48 103.5t30.5 67.5 q4 10 13.5 36t19.5 54.5t18 53t10 34.5q1 9 1 17q-1 38 -23 56q-28 22 -62 31t-64 12t-28 15q0 12 25 19q12 0 22 2t20.5 2t16.5 2q72 4 144.5 15.5t142.5 33.5q18 8 47 23.5t59.5 31t59.5 27.5t49 12t26.5 -2t4.5 -14q-4 -23 -40 -41t-59 -37q-102 -78 -180 -169t-123 -189 l-200 -436q-2 -2 -6.5 -12.5t-8.5 -24t-8 -27.5t-6 -22q-2 0 -2 -3v-4v-8l51 -219q23 -31 32 -65.5t23 -69.5q23 -55 46.5 -109.5t46.5 -109.5q0 -4 6 -13.5t10 -13.5l152 -319q10 -25 29.5 -50.5t48 -45t66.5 -29.5q23 -6 50 -7q18 0 37 3q10 -2 10 -9.5t-2 -11.5 q-2 -10 -4 -16t-18 -10q-80 -10 -166 -17.5t-166 -7.5t-133.5 12.5t-106.5 46.5l-19 9.5t-1 9.5q0 6 3 12t17 6h4q4 -2 17.5 -7t29 -9t29.5 -8t21 -7q20 -6 41 -6q14 0 26 13q2 4 3 13t1 13q2 23 -3 43.5t-13 39t-17.5 36.5t-15.5 41q-16 55 -38.5 107.5t-45.5 105.5 q-6 10 -21.5 48t-33 83t-34.5 88t-26 66q-6 18 -13 36.5t-30 28.5q-25 -25 -32 -43q-12 -23 -38 -76t-53.5 -114.5t-52 -116.5t-32.5 -78q-14 -31 -31 -73t-21 -76q-1 -8 -1 -16q0 -32 22 -50q26 -22 60 -31.5t62.5 -13.5t26.5 -16q0 -6 -4 -9.5t-20 -7.5q-47 -4 -96.5 -8 t-97.5 -10t-94 -18.5t-87 -32.5q-10 -4 -32.5 -14.5t-46 -21.5t-43 -22.5t-26.5 -15.5q-10 -4 -16 -5t-12 -1q-12 0 -23.5 2t-9.5 10z" />
<glyph unicode="Y" horiz-adv-x="1198" d="M31 1933v10.5t2 8.5q61 16 121.5 16h126.5h139q29 -8 60.5 -25.5t31.5 -44.5q-29 0 -48.5 10.5t-43.5 10.5q-49 0 -49 -35v-14l282 -625l33 25q2 0 13.5 31.5t25.5 75.5t28.5 90t22.5 77q2 6 7 32t12.5 59.5t14.5 67.5t11 52v10q0 20 -15 36t-36.5 27t-44.5 21.5 t-39 20.5q-2 2 -2 4v6l2 4l42 7t61.5 10.5t61.5 9.5t42 6q37 8 66.5 25.5t59.5 36t60.5 31.5t69.5 13q0 -23 -9.5 -36t-23.5 -24t-32.5 -25.5t-36.5 -36.5q-74 -88 -123.5 -183.5t-84 -195t-59 -199.5t-49.5 -201v-73v-72q0 -31 2 -97.5t5 -150.5t5 -176t4.5 -175 t4.5 -149.5t2 -99.5q2 -16 20.5 -31.5t40 -29t38.5 -24.5t17 -19q0 -2 -1 -3.5t-1 -3.5l-2 -2q-96 -10 -149 -40.5t-93 -71.5t-79 -85t-107 -79q0 2 -1 11t-1 13q0 43 14.5 84t34 82t39 83t27.5 85q10 190 18.5 402.5t8.5 414.5q0 106 -31 213t-78 210.5t-103.5 203.5 t-107.5 197q-25 53 -58.5 93t-99.5 69q-16 8 -28.5 10t-21.5 3t-14 4t-5 15z" />
<glyph unicode="Z" horiz-adv-x="1415" d="M55 -111q0 154 44 267.5t107.5 190.5t134.5 115t124 38q27 0 49.5 -6.5t38.5 -25.5t25.5 -58t9.5 -107q0 -18 -1 -38.5t-5 -39t-10.5 -30t-16.5 -11.5h-8q-2 10 -6 31t-7.5 44.5t-6.5 43t-3 27.5q-4 4 -7 13t-7 9q-6 0 -14 2q-6 0 -12.5 1t-8.5 1q-51 0 -103.5 -20.5 t-94 -69.5t-68.5 -133t-27 -211q0 -113 29 -181.5t70 -106t89 -50t89 -12.5q53 0 133 21.5t162 80t153.5 162t110.5 264.5q29 117 29 207q-1 35 -5 67q-16 110 -69 177t-132 99t-163 39q-33 3 -65 3q-50 0 -99 -7q-80 -11 -133 -26q-37 0 -75 -14t-74.5 -32.5t-72.5 -33 t-71 -14.5q-16 0 -18 28t-2 52q0 31 27.5 57.5t64.5 48t70.5 39t45.5 31.5q199 254 315 434.5t169 304t56 202.5v19q0 67 -19 113l-455 -32l-100 -209q0 37 -4.5 89t-6.5 102q-1 33 -1 61v27q1 38 12 44q49 -1 99 -1q119 0 245 7q180 10 342 9h76q10 -23 11 -46.5t1 -48.5 q0 -66 -16.5 -101.5t-41.5 -68.5l-423 -757l-25 -49q68 -35 140.5 -44.5t140 -21.5t129 -39t109.5 -97.5t79 -196.5t37 -337q-4 -20 -6 -39q-2 -16 -4 -31.5t-2 -23.5q-27 -193 -95.5 -303.5t-164 -170.5t-207 -82.5t-224.5 -39.5q-70 0 -120 4t-91 30t-79.5 85t-83.5 170 q-8 29 -10.5 52.5t-2.5 53.5z" />
<glyph unicode="[" horiz-adv-x="581" d="M123 -2q0 61 1 124t3 122q6 268 15.5 532t15.5 533q-8 16 -8 26q0 37 40 58q47 14 96.5 23t98.5 9t97 -11t93 -36q23 -23 23 -49q0 -25 -17.5 -42t-45.5 -17q-8 0 -25 4q-55 29 -125 29q-27 0 -53.5 -4.5t-52.5 -10.5q-6 -262 -14.5 -521t-14.5 -521q-2 -61 -3 -129 t-1 -135v-80t4 -76q29 -4 58.5 -6t58.5 -2t58.5 1t57.5 1q31 -4 46.5 -21.5t15.5 -40.5t-17.5 -42t-52.5 -19q-29 0 -58.5 -1t-58.5 -1q-49 0 -98 5t-94 26q-16 12 -22.5 21t-10.5 28q-6 55 -8 111.5t-2 111.5z" />
<glyph unicode="\" horiz-adv-x="698" d="M43 1423q0 31 18.5 48.5t40.5 17.5q39 0 60 -43q55 -195 119.5 -383.5t130.5 -380.5q66 -188 129 -378.5t151 -371.5q6 -18 6 -34q0 -27 -17 -43.5t-40 -16.5q-33 0 -57 33q-88 186 -155 380.5t-134 389.5q-66 190 -130.5 379.5t-119.5 382.5q-2 8 -2 20z" />
<glyph unicode="]" horiz-adv-x="581" d="M29 1360q0 20 14 37.5t43 23.5q63 -2 125.5 -13t126.5 -15q8 20 24.5 30.5t32.5 10.5q23 0 39.5 -16.5t20.5 -47.5q-2 -365 -8.5 -726t-8.5 -726q-2 -2 -2 -6q29 -16 29 -51q0 -18 -11.5 -36t-35.5 -28q-68 -23 -150 -20.5t-153 -1.5q-35 0 -52.5 18.5t-17.5 40.5 q0 20 14.5 38.5t42.5 25.5h39h82h49.5t46.5 4q-4 8 -4 14q2 340 7.5 677t9.5 677q-63 6 -125.5 16t-128.5 12q-27 10 -38 26.5t-11 35.5z" />
<glyph unicode="^" horiz-adv-x="1220" d="M143 465q0 12 7 29q49 123 108 237.5t113 233.5q29 59 54.5 119.5t53.5 119.5q20 41 52 75t73 34q29 0 64 -25q39 -29 72.5 -82t64.5 -114.5t57.5 -123t50.5 -106.5q27 -47 54.5 -95t51 -97t41 -101.5t23.5 -107.5v-8q0 -33 -18 -49.5t-41 -16.5q-18 0 -35.5 12.5 t-25.5 38.5q-8 66 -32 126.5t-54.5 118.5t-65.5 114.5t-63 113.5q-33 66 -66 137.5t-80 127.5q-35 -63 -62.5 -132t-60.5 -137q-53 -117 -112.5 -232.5t-108.5 -238.5q-20 -35 -53 -35q-25 0 -43.5 17.5t-18.5 46.5z" />
<glyph unicode="_" horiz-adv-x="1024" d="M-90 -197q0 20 14.5 39t42.5 25h1047q31 -4 46 -21.5t15 -40.5t-17.5 -42t-51.5 -19h-1026q-35 0 -52.5 18.5t-17.5 40.5z" />
<glyph unicode="`" />
<glyph unicode="a" horiz-adv-x="1075" d="M35 215q0 125 53 225.5t139 171t198 109.5t228 39l23 35q2 2 3 33.5t1 45.5q0 70 -11.5 132.5t-41 109.5t-82.5 75t-137 28q-47 0 -87 -22.5t-70 -58.5t-47.5 -81t-17.5 -88q0 -39 27 -68t66 -29q43 0 67.5 24t38.5 52.5t25.5 52t27.5 23.5q23 0 22 -29q0 -35 -16 -66.5 t-41.5 -57t-59.5 -41t-67 -15.5q-68 0 -102.5 50t-34.5 112q0 61 22.5 115.5t61.5 95.5t93.5 64.5t117.5 23.5q123 0 197 -39t111.5 -104.5t50 -153.5t12.5 -188q0 -90 -6 -176.5t-6 -174.5v-118q0 -6 2 -26t3 -42.5t3 -41.5t4 -26q2 -23 9 -34t30 -11q47 0 73.5 50.5 t39 115t15.5 128t3 89.5q0 53 -6 104.5t-6 104.5q0 23 26 39l21 -24v-20.5t1 -44.5t1 -50.5v-38.5v-57t-1 -75t-1 -67.5v-36.5q-2 -53 -13.5 -114.5t-36 -115.5t-66.5 -90t-108 -36q-35 0 -58 19.5t-39.5 47t-27 59.5t-18.5 58q-43 -35 -79 -76.5t-72.5 -78.5t-81.5 -61.5 t-109 -24.5q-57 0 -105.5 21.5t-84 58t-56 86t-20.5 104.5zM186 303q0 -41 16.5 -82t44 -73.5t65.5 -53t81 -20.5q41 0 85 29.5t81 73.5t60.5 93t23.5 88v320q0 10 -21.5 12t-27.5 2q-84 0 -158 -28.5t-129 -80t-88 -123t-33 -157.5z" />
<glyph unicode="b" horiz-adv-x="884" d="M-99 -12.5q-1 12.5 1 24t8 20.5t18 9q10 0 19.5 -19.5t25 -42t39 -42t60.5 -19.5q27 0 29.5 6t13.5 35q41 123 59.5 245t28.5 251v20q-5 129 -5 257q0 43 1 86v53q0 145 -9 290q-4 57 -5 123t-10 130.5t-28.5 126t-60.5 114.5q-18 6 -45 11t-51.5 14.5t-42 22.5t-17.5 36 q33 0 64 -7.5t61.5 -14.5t62.5 -14t66 -7q31 0 60.5 10t58.5 10q10 0 13 -8t3 -14q5 -72 5 -142q0 -44 -2 -88q-2 -40 -2 -80q0 -73 6 -149q0 -8 1 -30.5t3 -47t4 -48.5t2 -32q51 53 117.5 84t152.5 31q45 0 85 -34t70 -80t48 -96t20 -81q2 -86 9 -167q6 -80 8 -160 q0 -18 1 -36q0 -62 -6 -124q-7 -80 -28 -162q-8 -35 -34.5 -77t-65.5 -79t-86 -62.5t-97 -25.5q-47 0 -75.5 24.5t-49 58.5t-36 71t-35.5 61l-12 -10q-4 -51 -13.5 -94t-23 -83t-34 -81t-46.5 -86q-29 -29 -58.5 -49.5t-76.5 -20.5q-33 0 -63 17.5t-52.5 44t-36.5 55 t-16 53.5q0 6 -1 18.5zM328 502q2 -43 19.5 -98.5t51 -104.5t85 -83t120.5 -34q59 0 93 33t50.5 80t21.5 96t5 84q4 41 4 89q0 32 -2 68q-4 89 -29.5 177t-80 160.5t-146.5 107.5q-31 0 -60.5 -11t-54 -29.5t-41 -41t-20.5 -45.5q-6 -117 -9 -224.5t-7 -219.5v-4z" />
<glyph unicode="c" horiz-adv-x="851" d="M53 598q0 92 28 196.5t83 193.5t137 148.5t191 59.5q129 0 204.5 -70.5t75.5 -207.5q0 -72 -46 -114t-112 -42q-90 0 -126.5 54t-36.5 130q0 6 1 29.5t1 32.5q4 10 9 11t11 1q27 0 40 -21.5t25.5 -46t29 -46t46.5 -21.5q29 0 42.5 30.5t13.5 51.5q0 25 -18.5 49t-44 44.5 t-53.5 33t-46 12.5q-63 0 -107.5 -31t-72 -80t-44 -110.5t-23.5 -125t-8 -121.5t-1 -99q0 -53 15.5 -124t49 -133.5t85 -105.5t122.5 -43h4q61 2 106.5 29.5t75.5 70.5q28 43 40 95q8 34 8 69q0 18 -2 35q12 0 25.5 -3t13.5 -19q16 -43 16 -88q0 -30 -7 -60 q-18 -76 -65 -138q-47 -60 -117 -96q-58 -29 -123 -29q-15 0 -30 1q-121 0 -201 55.5t-127 141.5t-67.5 192.5t-20.5 208.5z" />
<glyph unicode="d" horiz-adv-x="1243" d="M53 575q0 72 5 150t25.5 153.5t60.5 142t110 118.5q35 23 79 44t87 21q59 0 103 -15t81 -42t70 -60.5t74 -72.5h12l4 16q4 17 8 39.5t8 48t6 41.5q14 88 21.5 177t7.5 180v106q-8 27 -25.5 58.5t-42 58t-56.5 44t-68 17.5q-43 0 -76 -37t-55.5 -87t-35 -101t-12.5 -82 v-63q10 -23 24.5 -29t37.5 -6q25 0 37 10t22 22.5t23.5 22.5t38.5 10q0 -43 -32 -71.5t-85 -28.5q-41 0 -72.5 16.5t-42.5 53.5q0 8 -2 33.5t-2 33.5q0 55 16.5 124t50.5 129t88 101t132 41q115 0 172 -60t76 -155v-180q0 -154 -21.5 -303.5t-48.5 -300t-48.5 -300 t-21.5 -302.5q0 -35 5.5 -76t21.5 -76t47 -58.5t80 -23.5q76 0 122 42t68.5 102.5t29.5 125t7 111.5v25.5t-1 38t-1 38v23.5q-8 29 -35.5 49.5t-62.5 20.5h-14q-51 -37 -78 -79t-27 -99q0 -18 1 -37t7.5 -34t20.5 -25.5t43 -10.5l4 2q2 0 2 2q6 4 24.5 20.5t28.5 22.5 q0 -4 1 -14t1 -14q0 -53 -53 -54q-70 0 -98.5 36t-28.5 95q0 139 125 222h37q49 0 80 -21.5t48 -54.5t22.5 -73t5.5 -77q0 -57 -10.5 -129.5t-41 -136t-86 -107.5t-143.5 -44q-63 0 -90 15t-39 36.5t-21.5 44t-39.5 37.5q-45 -94 -145.5 -147.5t-217.5 -53.5q-74 0 -128 34 t-91 88t-59.5 122.5t-34 137.5t-15.5 131t-4 107zM207 449q0 -4 4 -26t10 -50.5t12.5 -57t10.5 -45.5q2 -14 16 -47t32.5 -67.5t39 -61t37.5 -26.5h153q27 0 53.5 28.5t50 66.5t39 75.5t21.5 54.5q2 14 8 55t12.5 85t11.5 84t5 56v19.5t1 40t1 46v40.5q0 18 1 47t0 60.5 t-4 63.5t-11 56q-12 33 -39 68t-64 62.5t-78 45t-79 17.5q-68 0 -111 -36t-70.5 -91.5t-41 -125t-17.5 -136t-4 -125v-90.5v-86z" />
<glyph unicode="e" horiz-adv-x="933" d="M49 569q0 106 24.5 231.5t81 231t149.5 176t231 70.5q80 0 131 -45t80.5 -111.5t41 -141.5t11.5 -134q0 -4 -2 -25.5t-2 -29.5q-18 -27 -65.5 -40.5t-107 -21.5t-123 -13t-115.5 -13.5t-86 -23.5t-34 -44q0 -88 2 -180.5t26.5 -167t83 -122.5t171.5 -48q53 0 99 22.5 t80 59.5t53.5 86t19.5 102q0 80 -38 131t-124 51q-45 0 -70.5 -17t-54.5 -56h-16q-10 0 -20.5 2t-10.5 18q0 27 28.5 51.5t67.5 43t78 28.5t61 10q55 0 94.5 -20.5t64 -55t34.5 -79.5t10 -95q0 -72 -36 -137t-83 -119q-66 -78 -142.5 -111.5t-174.5 -33.5q-117 0 -197 52 t-129 134t-70.5 184.5t-21.5 200.5zM260 754q4 0 24.5 1t26.5 1q16 2 55.5 7t82.5 10t80.5 10t52.5 8q35 14 54 46.5t19 67.5q0 45 -6 96.5t-23.5 94.5t-51.5 71.5t-89 28.5q-80 0 -125 -48t-67.5 -117.5t-27.5 -145.5t-5 -131z" />
<glyph unicode="f" horiz-adv-x="737" d="M2 965l6 77h139q2 49 2 97.5t-2 96.5q-1 34 -1 69q0 61 4 122q0 49 5 115t31.5 132.5t82 121.5t157.5 82q4 0 16.5 3t24.5 7t22.5 8.5t14.5 4.5q18 2 52 8t66.5 11t59.5 9t31 4h65h66q55 -23 95 -65q36 -39 36 -97v-12q-4 -41 -47 -112.5t-102.5 -141t-123 -120 t-106.5 -50.5h-6q-2 0 -6 4q-2 2 -4 7q0 10 39.5 44.5t88 82t88.5 99.5t44 99q2 18 -1 40t-12.5 40t-26 30.5t-40.5 12.5h-86q-45 0 -107.5 -9t-121 -31.5t-100.5 -61.5t-44 -99q-4 -59 -5 -125v-67.5v-66.5q1 -68 3 -131.5t4 -117.5q2 -8 4 -32.5t2 -32.5q10 0 37 -2t33 -2 q72 0 100.5 17.5t38.5 39t13.5 38.5t23.5 17q16 0 23.5 -14t9.5 -33.5t1 -39t3 -31.5q2 -8 8 -26.5t14.5 -39t14.5 -39t10 -26.5l-2 -37q-39 0 -76 9t-73.5 20.5t-75.5 20.5t-78 9q-2 0 -10.5 -1t-10.5 -1q8 -61 10.5 -121.5t2.5 -121t2 -122t10 -122.5q2 -8 9 -41t16.5 -73 t19.5 -80t16 -60q2 -6 7.5 -19.5t11.5 -29t11 -28.5t9 -20q6 -12 11.5 -15t8.5 -5t5 -7t0 -20q-51 0 -102.5 -5t-100.5 -20.5t-93 -43t-79 -70.5h-10q-23 0 -28 14.5t-3 30.5q4 53 34 98t44 97q18 61 20 128.5t7 127.5q0 14 2 37.5t3 47t2 42t1 22.5v79t-2 120.5t-3 122 t-3 80.5q-2 2 -10.5 6t-12.5 4q-6 2 -22.5 5t-35 6t-36 6t-23.5 5z" />
<glyph unicode="g" horiz-adv-x="1003" d="M-139 -543q0 80 43 144.5t107.5 109.5t142 69.5t149.5 24.5q6 0 29.5 -1t29.5 -1q10 -16 22.5 -36.5t12.5 -38.5t-9 -37t-26 -29q-2 0 -6 5t-8 7q-4 10 -11 35t-9 35h-31q-39 0 -92 -13.5t-100.5 -38t-81 -62.5t-33.5 -87q0 -98 60.5 -148t156.5 -50q39 0 99.5 9 t130 27.5t139 47t126 65.5t92 83t35.5 101q0 31 -18 64t-46 60.5t-61.5 47t-64.5 23.5l-336 35q-41 16 -87 26.5t-89 20.5q-10 6 -21.5 27.5t-19.5 49t-13 53.5t-5 38q0 6 1 25.5t1 25.5q4 6 15 17.5t24.5 24.5t24.5 24.5t18 15.5q4 4 23.5 13.5t23.5 11.5q2 2 6 4l6 6 q-23 41 -51.5 76.5t-54 74.5t-43 81t-17.5 95q0 76 20.5 168.5t62.5 172t107.5 133t157.5 53.5q6 0 35 -2t39 -2q14 -6 43 -26.5t57.5 -44t52 -41t27.5 -17.5q2 0 3 1t3 1q2 35 10.5 73.5t25 71.5t43 54.5t67.5 21.5q53 0 92 -32t55 -85v-100v-96q-2 -12 -4 -39t-3 -56.5 t-3 -56.5t-2 -37q-2 -16 -10.5 -50t-22.5 -66.5t-33.5 -57t-44.5 -24.5t-34 17t-9 40l10 10q9 10 21 23.5t23.5 30t15.5 30.5q2 14 5 51t7 78t8 77t4 52v33q0 27 -4 53.5t-15 49t-29.5 36.5t-47.5 14q-31 0 -44 -21.5t-18 -52t-7 -62t-11 -50.5q2 -10 6.5 -36.5t8.5 -56.5 t7 -57.5t3 -37.5v-20q0 -51 -8 -113q-10 -74 -35 -145.5t-66 -132t-100 -89.5q-29 -14 -93.5 -18.5t-130 -13.5t-114.5 -32.5t-49 -76.5q0 -29 21.5 -48.5t51 -31.5t61.5 -17.5t54 -5.5q4 0 23.5 2t41 4t41 4.5t23.5 2.5h156h158q104 -33 163.5 -101.5t59.5 -179.5 q0 -41 -3 -85t-32 -79q-61 -74 -168.5 -126t-230.5 -86t-245 -50t-210 -16q-33 0 -72.5 9t-75.5 28.5t-59.5 49t-23.5 68.5zM197 633q0 -49 8 -102.5t28.5 -99.5t57.5 -75.5t94 -29.5t90 25.5t49.5 64.5t20.5 87t4 95q0 53 -7 116.5t-23.5 125t-46.5 117t-75 92.5h-18 q-63 0 -99 -51.5t-54.5 -120t-23.5 -138t-5 -106.5z" />
<glyph unicode="h" horiz-adv-x="933" d="M18 -125q2 25 21.5 35t44.5 21.5t48.5 34t33.5 73.5q0 14 2 51t4 78t3 78t1 51q0 23 2 63.5t4 82.5t3 74t1 36v108.5v167t1 194.5t2 194.5t2.5 166t1.5 107.5q0 2 -2.5 14.5t-6.5 25.5t-9 23.5t-13 10.5h-119q2 49 31.5 62t68.5 24q94 16 201 33.5t205 17.5 q-2 -35 -10.5 -49.5t-21.5 -20.5t-29.5 -9t-35 -13.5t-39 -34t-38.5 -72.5q-10 -25 -13.5 -47t-5.5 -47q-2 -75 -2 -151q0 -57 1 -115q3 -135 3 -264q20 45 43 90t50.5 79.5t65.5 56t91 21.5q51 0 98.5 -16t81.5 -49q36 -33 54 -82q17 -44 16 -101v-12l-27 -661 q0 -2 6.5 -22.5t16.5 -30.5q0 -2 1 -7.5t3 -7.5q10 0 30.5 1t41 -2t35 -13t14.5 -33q-113 0 -219.5 -42t-204.5 -109h-10q-20 0 -21 22q2 25 19.5 47.5t27.5 44.5q18 37 34 64.5t27 56.5t21.5 59.5t20.5 73.5q0 8 1 33t2 52.5t2 52t1 34.5q0 18 1 46t2 55.5t2 49t1 25.5 q0 8 -1 38t-3 66t-4 69.5t-4 50.5q-4 39 -31 76.5t-61 37.5q-59 0 -103.5 -50t-73 -119.5t-44 -143.5t-17.5 -121v-31.5t-1 -40t-1 -37v-20.5q0 -18 1 -67.5t2 -106.5t2 -108.5t1 -73.5q2 -35 12.5 -59.5t26.5 -45t35.5 -40t38.5 -44.5q2 -4 2 -12v-10q-2 -20 -9.5 -26.5 t-25.5 -6.5h-8q-63 20 -113.5 33.5t-120.5 13.5q-12 0 -20 -1t-21 -1q-29 -14 -47 -19.5t-49 -5.5q-12 0 -21.5 2.5t-9.5 22.5z" />
<glyph unicode="i" horiz-adv-x="495" d="M-2 928q0 35 29.5 53t70.5 27.5t84 15.5t70 16q45 18 68.5 35t64.5 17q18 0 24.5 -9.5t6.5 -29.5q0 -10 -6.5 -21.5t-14.5 -26t-14 -31t-8 -38.5q-14 -121 -34 -245t-20 -247q0 -70 9.5 -144.5t56.5 -135.5q6 -8 21.5 -21.5t31 -29t27.5 -31.5t12 -35q0 -6 -1 -14 t-11 -10q-35 -2 -62.5 -3.5t-54 -6.5t-53.5 -12t-55 -21q-20 -8 -38 -21.5t-36.5 -26t-37.5 -21.5t-42 -9v59q47 72 75.5 166t44 195.5t20.5 201t5 181.5v30.5v46t-1 44t-3 26.5q-2 20 -14 48t-35 28h-180zM115 1417q0 61 40 93t99 32q31 0 53.5 -13t37.5 -34.5t22.5 -48.5 t7.5 -51q0 -55 -32 -88t-87 -33q-66 0 -103.5 38.5t-37.5 104.5z" />
<glyph unicode="j" horiz-adv-x="868" d="M47 -37q0 47 5 104.5t24.5 106.5t57.5 83t102 34q31 0 52 -17.5t34.5 -44t19.5 -56.5t6 -54v-24.5t-3 -37t-9 -33t-17 -14.5q-18 0 -18 15q0 23 9 44t9 44q0 20 -4 45.5t-14 48t-27.5 38t-44.5 15.5q-47 0 -73.5 -25.5t-41 -62.5t-18.5 -80t-4 -76q0 -80 23.5 -153.5 t68.5 -132t111.5 -93t153.5 -34.5q100 0 158.5 67.5t58.5 169.5q0 74 -10.5 139.5t-25 127t-32.5 122t-33 127.5q-2 14 -5 52t-6 80t-6 79t-3 54q-1 17 -1 37t1 42q1 30 1 61v31q-1 46 -9.5 90t-28.5 76q-12 18 -32.5 18.5t-41 -0.5t-36 5t-15.5 37q59 0 94 12t61.5 34.5 t52 53.5t66.5 68q8 -4 16.5 -8t8.5 -15q0 -27 -13.5 -66.5t-19.5 -62.5q-2 -8 -4 -28.5t-2 -24.5v-17q0 -16 -1 -37.5t-1 -43v-33.5q0 -158 20.5 -307.5t65.5 -298.5q20 -78 44 -144.5t24 -148.5q0 -92 -17.5 -181t-60.5 -158t-116 -111t-181 -42q-68 0 -120 23.5t-92 62.5 t-68.5 91.5t-53.5 109.5q-20 47 -29.5 105.5t-9.5 111.5zM414 1368q0 29 13 56.5t34.5 48t49.5 33t54 12.5q47 0 62.5 -36t15.5 -75q0 -29 -11 -57.5t-31.5 -52t-48.5 -38t-58 -14.5q-20 0 -35 13.5t-25 32t-15 40t-5 37.5z" />
<glyph unicode="k" horiz-adv-x="1001" d="M-18 1718q0 2 9 10.5t13 8.5q10 -2 36 -3t54.5 -1t54 1t35.5 3q2 0 17.5 3t34 7t34 7t19.5 3q2 0 10 1t14 1q12 0 21.5 -3t9.5 -19q-2 -16 -9 -33.5t-7 -36.5q-16 -256 -24 -510t-9 -510h10h4l4 4q4 4 4 6q14 18 52.5 62.5t80.5 94.5t79.5 95t52.5 64q29 37 56.5 77 t29.5 87q2 25 -1 50t-12.5 46.5t-29 35t-50.5 13.5q-29 0 -39 -18.5t-14 -41t-9 -41t-24 -18.5h-14q-4 23 -5 39.5t1 38.5q2 37 24.5 64.5t55.5 46t68.5 28t66.5 9.5q4 0 23.5 -2.5t23.5 -2.5q39 -48 59 -84q18 -33 17 -88v-12q-4 -74 -49 -139.5t-96 -118.5 q-12 -16 -34 -38.5t-42.5 -44t-34.5 -38t-14 -18.5v-8q41 -35 67.5 -93.5t48 -127t39 -139t37 -128t46 -93.5t65.5 -36q27 0 46 13.5t31.5 34t18.5 45t6 44.5q1 6 1 12q-1 35 -21 60q-22 27 -61 27h-5q0 2 -3 9t-3 11q2 33 39 33q12 0 20.5 -5t22.5 -18q29 -27 45 -49 t23.5 -45.5t7.5 -52.5t-2 -68q-2 -10 -4.5 -40.5t-4.5 -41.5q-23 -78 -77 -130t-134 -52q-66 0 -100.5 35t-50.5 85t-21.5 106.5t-13.5 101.5q0 8 -3 29.5t-8 46t-10.5 49t-7.5 39.5q-6 18 -17 52t-28.5 67.5t-38 59.5t-43.5 30q-20 4 -43.5 -8.5t-47 -32t-41 -43 t-25.5 -41.5q0 -8 -2 -38t-2 -40q-2 -33 -4 -68t-2 -70.5t5 -69.5t17 -65q6 -12 20.5 -34.5t30 -47t25.5 -47t10 -34.5v-7l-6 -6l-4 -4q-21 1 -42 1l-114 -8q-78 -11 -153 -36q-18 -4 -28.5 -18.5t-29.5 -14.5q-16 0 -16 19v6q0 2 4 8t6 10q39 59 77 111.5t56 124.5 q2 8 4 31.5t5.5 51.5t5.5 51.5t2 31.5q2 25 6 89t8 137t8 136.5t6 87.5q2 45 7.5 119t8.5 146.5t6 127t3 60.5q0 14 1 45t2 62.5t2 57.5t1 32q-4 20 -11 51t-20.5 61.5t-32 54t-43.5 27.5q-4 0 -18 2t-30.5 4t-30 4.5t-17.5 4.5q-6 0 -19.5 8t-8.5 22z" />
<glyph unicode="l" horiz-adv-x="413" d="M-72 1827q0 51 23.5 90t59.5 64.5t76 38t71 12.5q74 0 113.5 -33t57 -87t20.5 -126t7 -148q0 -4 1 -29.5t1 -41.5q0 -84 -8 -167t-10 -169q-4 -86 -4 -168t-17 -166q0 -23 -1 -68t-3 -102t-4 -121.5t-4 -122t-4 -103.5t-2 -69v-26q0 -57 11.5 -119t27.5 -119 q8 -29 22.5 -58.5t14.5 -66.5q0 -16 -4 -29.5t-21 -13.5q-8 0 -32.5 22.5t-56.5 50.5t-68.5 50.5t-69.5 22.5q-18 0 -37.5 -7.5t-40.5 -7.5q-4 0 -13 1t-9 14q0 2 3 10t7 12q49 92 75.5 199.5t41 219.5t21.5 224.5t15 216.5q16 211 33 418t17 418q0 37 -9.5 73.5t-27 66.5 t-43 48.5t-58.5 18.5q-41 0 -67.5 -22.5t-44 -50.5t-26.5 -50.5t-11 -22.5q-23 0 -23 23z" />
<glyph unicode="m" horiz-adv-x="1589" d="M35 979q0 47 15.5 91t43 79t67.5 56.5t89 21.5q70 0 100.5 -29t41.5 -64.5t12.5 -64.5t13.5 -29q2 0 4 2q29 31 58.5 62t63.5 56.5t70.5 41t81.5 15.5q68 0 110 -40t66.5 -87.5t37 -87t22.5 -39.5h4q4 10 17.5 34.5t27.5 51t27.5 51t19.5 35.5q35 53 88 67.5t111 14.5 q8 0 35.5 -1.5t37.5 -1.5q29 -12 62 -32.5t59.5 -47t44 -58.5t17.5 -68v-215l-125 -580q0 -2 -1 -12.5t-1 -16.5q0 -75 78 -75h2q25 0 42 8t44 8q0 -45 -23.5 -68.5t-59.5 -38t-77 -25.5t-74 -32q-47 -29 -105.5 -74t-99.5 -86h-22v35q47 106 94 218t85 226.5t61.5 232.5 t23.5 239q0 10 -1 30.5t-1 22.5q-2 12 -6 40.5t-9 61.5t-11.5 61.5t-8.5 39.5q-16 45 -38.5 63.5t-67.5 18.5q-35 0 -60.5 -14.5t-45 -38t-34 -52.5t-26.5 -55q-4 -10 -14.5 -36t-21.5 -55.5t-20.5 -55t-11.5 -35.5q-4 -25 -11 -84.5t-16.5 -127t-17.5 -127t-12 -83.5 q-4 -33 -17.5 -79t-39.5 -69q-2 -2 -12.5 -5t-22 -6t-21.5 -6t-12 -5q-16 -8 -29.5 -21.5l-26 -26t-26.5 -21.5t-33 -9v18q63 174 100 356.5t37 364.5q0 35 -3 86t-17 97.5t-43 79t-80 32.5q-43 0 -76.5 -27.5t-54.5 -64.5q-4 -6 -15.5 -30.5t-26.5 -54.5t-29.5 -56.5 t-20.5 -38.5q-16 -37 -23.5 -78t-9.5 -82q-1 -27 -1 -55v-27q1 -41 1 -80v-22q2 -16 5 -60.5t6 -93.5t6.5 -93t5.5 -61q6 -18 20 -33.5t33.5 -25.5t39 -18.5t34.5 -14.5v-10q0 -8 -32 -22.5t-73 -32t-81 -36t-54 -34.5q-23 -20 -48.5 -62t-50 -84t-45 -74t-32.5 -32 q-10 0 -14.5 7.5t-4.5 17.5v12q43 86 86 180t52 195q0 10 5 73.5t10 143.5l10 160t7 125v10q0 61 -1 126.5t-7 132t-19.5 130t-37.5 123.5q-4 0 -15.5 2t-15.5 2q-39 0 -53 -26.5t-23.5 -58.5t-21.5 -58.5t-45 -26.5z" />
<glyph unicode="n" horiz-adv-x="1122" d="M-119 1210q57 0 103.5 -19.5t103.5 -19.5q33 0 62.5 10.5t57.5 21.5t52.5 21.5t48.5 10.5l-33 -369l21 11q4 8 16.5 34.5t25.5 55t26.5 54.5t19.5 36q33 59 72 92t102 80q29 12 56.5 13t56.5 1q68 0 113.5 -27.5t74.5 -70.5t44.5 -96.5t23.5 -104.5q0 -8 -2 -28.5t-5 -45 t-5.5 -45t-2.5 -28.5q0 -14 -2 -39t-4 -48.5t-4 -43t-2 -21.5q-14 -90 -39.5 -182t-52.5 -184.5t-49.5 -184.5t-30.5 -184q-4 -31 -1 -59.5t13.5 -52t31 -38t54.5 -14.5q23 0 43.5 8t38.5 4q31 39 51.5 76t33 74t19.5 77t11 87q0 10 1 27.5t2 36t2 31.5l1 13v17.5t-3 32 t-8 29.5t-15 13q-14 0 -24.5 -10t-17 -23.5t-9.5 -26.5t-5 -22h-39q4 51 19.5 92.5t58.5 79.5q4 2 11.5 2.5t11.5 0.5q33 0 48 -30t20 -68q4 -27 4 -54q0 -11 -1 -21q-2 -38 -4 -55q-4 -49 -12 -123.5t-33.5 -144.5t-74 -120t-130.5 -50q-76 0 -114.5 35t-54.5 87 q-15 49 -14 106v7q1 62 5 113q16 184 46 362.5t46 360.5q5 44 11 108q3 29 3 58q-1 34 -5 64q-8 58 -39 98.5t-103 40.5q-78 0 -135 -57.5t-97 -138.5t-61.5 -168t-27.5 -144q0 -6 -2 -27.5t-2 -25.5q2 -25 7 -88.5t10 -134t10 -133l7 -87.5q0 -6 3.5 -33.5t8.5 -60.5 t9 -64.5t8 -46.5q2 -4 8 -18t6 -16q0 -6 -1 -26t-1 -26q-23 0 -45 30t-55 64t-83 58q-34 16 -80 16q-23 0 -48 -4q-14 4 -10 23q0 10 15.5 37.5t33.5 61.5t34.5 68.5t22.5 59.5q0 8 3.5 30.5t6.5 48t6 47.5t3 32q2 14 3 37.5t3 48t3 43t1 22.5q0 18 1 65.5t2 100.5t2 100.5 t1 65.5q-20 86 -61 149.5t-127 100.5q-2 0 -13.5 5t-24.5 11t-25.5 11.5t-14.5 7.5q-16 6 -24.5 9t-6.5 17z" />
<glyph unicode="o" horiz-adv-x="880" d="M51 592q2 84 27.5 189.5t75 197.5t126 155.5t185.5 63.5q115 0 188.5 -57.5t115.5 -145.5q43 -89 57 -191q11 -80 11 -154q0 -20 -1 -40q-4 -92 -24.5 -198.5t-68 -198.5t-123 -153.5t-186.5 -61.5q-115 0 -190.5 57.5t-119.5 144.5q-44 88 -60 192q-13 84 -14 162 q0 19 1 38zM217 565.5q0 -59.5 6 -127t20.5 -136.5t41 -124t68.5 -90t104 -35q51 0 90 35t66.5 90t45 124t27.5 135.5t14.5 123.5t6.5 92v19q1 47 -7 114q-10 82 -37.5 161t-76.5 136.5t-129 57.5q-41 0 -75 -28t-59.5 -72t-44 -98t-32 -107.5t-19.5 -99t-8 -74.5 q-2 -37 -2 -96.5z" />
<glyph unicode="p" horiz-adv-x="854" d="M-80 -545q10 55 32.5 105.5t47.5 100.5t48.5 100.5t35.5 103.5q59 242 70 487q4 94 4 188q0 154 -11 312q0 10 -2 38t-4 59.5t-5 59t-5 40.5q0 2 -2 15t-6 28.5t-9 31t-12 21.5q-4 6 -28.5 25.5t-53.5 41.5l-73 58q0 10 15 18t26 8q37 0 63.5 -12t53 -25.5t60.5 -25.5 t83 -12h16q4 0 24.5 5t24.5 5q10 0 11.5 -10.5t1.5 -14.5q2 -4 2 -10v-8q-16 -86 -16 -172q-1 -7 -1 -13q0 -80 6 -165q2 0 4.5 -3.5t6.5 -0.5q2 2 5 10t5 12q10 37 23.5 93.5t37 109.5t61.5 92t99 39q84 0 139.5 -38t88 -96.5t47 -126t20.5 -128.5q0 -4 1 -26.5t2 -50.5 t1 -54.5v-40.5q-2 -10 -4 -35t-4 -50.5t-3 -48t-3 -28.5q-6 -43 -18.5 -110.5t-39 -132t-72.5 -110.5t-120 -46q-68 0 -111 33.5t-72.5 81.5t-52 101.5t-47.5 94.5l-12 -19q0 -2 1 -21.5t2 -44t3 -50t2 -39.5q2 -20 5 -57t6.5 -74t5.5 -67t2 -34q4 -47 21.5 -74.5t36.5 -46 t35.5 -29.5t16.5 -24q0 -2 -1 -6t-1 -6q-104 -4 -191 -48t-155 -110q-4 -4 -16.5 -18t-26.5 -30.5t-28.5 -34t-20.5 -25.5q-8 -10 -12 -21.5t-10.5 -21.5t-14.5 -16.5t-22 -6.5h-17zM319 539q2 -23 9.5 -63t20.5 -86t33.5 -94t47.5 -86t60.5 -62.5t76.5 -24.5q53 0 83 43 t43.5 100.5t15.5 114.5q1 29 1 50t-1 36q0 2 -1 18.5t-2 39t-2.5 46t-1.5 35.5q-2 27 -4 69t-8 90t-18.5 97t-34 89t-54 64.5t-81.5 24.5q-33 0 -59.5 -34.5t-47 -87t-35 -114t-23.5 -117.5t-13.5 -97t-4.5 -51z" />
<glyph unicode="q" horiz-adv-x="1067" d="M61 473q-1 31 -1 59q0 51 2 96q4 70 8 109q6 74 21 158t49 155.5t93.5 119t153.5 47.5q76 0 108.5 -47.5t48 -112t23.5 -132t35 -110.5l27 318q-10 25 -15.5 43t-1.5 45q0 8 3 17t14 11q51 -2 90 -3h5q37 0 77 14q23 6 40 16t33.5 19.5t34 16.5t41.5 7q18 0 31.5 -7 t13.5 -28q-4 -25 -26.5 -30t-38.5 -15q-4 -4 -17.5 -16.5t-27 -25.5t-26.5 -25.5t-17 -16.5q-18 -23 -25.5 -57.5t-19.5 -59.5q0 -14 -4.5 -51t-8.5 -78t-8 -77.5t-6 -51.5q-2 -25 -4 -66.5t-5 -82.5t-5 -73t-2 -36v-60v-119v-134.5v-106.5q0 -35 -5.5 -90t-8.5 -114 q-2 -43 -2 -84v-26q1 -52 14 -83q29 10 57.5 41t56 72t55 86t51 82t45 61.5t38.5 24.5l-2 -29l-21 -41q-20 -41 -50 -96.5t-60.5 -114.5t-49.5 -98q-16 -29 -42.5 -62.5t-61.5 -42.5q-6 0 -31.5 -1t-34.5 -1q-51 0 -82.5 11.5t-48 35t-20.5 61.5q-3 25 -3 57q0 16 1 34 q2 14 6 64.5t9 107.5t10.5 106.5t5.5 61.5q0 10 1 35.5t2 53.5t1 51.5v33.5q-18 -23 -25.5 -49.5t-19.5 -52.5q-16 -35 -41 -72t-56.5 -67.5t-68.5 -51t-78 -20.5q-68 0 -113 45t-70.5 115.5t-37 156.5t-13.5 170zM199 336q2 -37 5 -85t17.5 -92t42 -75t76.5 -31 q35 0 67.5 29t59.5 75t49.5 101t38.5 107.5t25.5 95.5t11.5 63q2 21 2 42q0 27 -3 56q-5 50 -15.5 99t-23.5 97t-24 91q-4 20 -11 45t-18.5 46.5t-28.5 36t-44 14.5q-12 0 -28.5 -7.5t-32 -18.5t-29.5 -23.5t-23 -20.5q-55 -115 -73.5 -229.5t-28.5 -233.5q0 -10 -2 -36.5 t-4 -56.5t-4 -55.5t-2 -33.5z" />
<glyph unicode="r" horiz-adv-x="991" d="M12 1053v9q0 28 10 56q12 32 35 56t51.5 39.5t61.5 15.5q88 0 137 -41t72.5 -102.5t29 -134t9.5 -138.5h12q6 0 14.5 28.5t22.5 70.5t37.5 92.5t61.5 92.5t94.5 70.5t134.5 28.5q39 0 69.5 -18.5t54 -48t37 -65.5t15.5 -71v-10q1 -53 -19 -113q-22 -64 -62 -117 t-96.5 -86.5t-119.5 -33.5q-18 0 -30.5 2t-12.5 24q-2 14 10 26.5t29.5 23t35 21.5t25.5 24q33 46 61 110q25 56 25 111v16q-4 53 -43 92t-94 39q-33 0 -58.5 -20.5t-45 -50t-34 -63.5t-22.5 -58q-29 -80 -48 -147.5t-29.5 -135t-13.5 -137.5q-1 -30 -1 -62q0 -43 2 -90 q2 -25 3 -52t6 -55t17.5 -52.5t35.5 -40.5h40q29 0 51.5 8t51.5 8q4 -35 -6.5 -62.5t-12.5 -60.5q-59 -10 -116.5 -21.5t-110.5 -32t-99 -53t-79 -83.5q-2 -4 -8 -17.5t-14.5 -31t-14.5 -31.5t-8 -17q-2 -4 -19.5 -22t-25.5 -25l-6 -2q-16 0 -16.5 14.5t-2.5 24.5v10 q0 32 10 63q12 36 29 71.5t35 70.5t31 70q57 179 73 377q10 124 11 244q0 73 -4 145q-2 29 -5.5 86t-17.5 113.5t-43 99.5t-80 43q-41 0 -54 -19.5t-17.5 -44t-9 -48t-25.5 -31.5q-16 2 -16.5 23.5t-0.5 25.5z" />
<glyph unicode="s" horiz-adv-x="772" d="M61 217q0 37 5.5 87t20.5 95t46 77t80 32q41 0 66.5 -28.5t25.5 -67.5q0 -23 -2 -46.5t-29 -23.5q-39 0 -61 45q-33 -20 -42 -48t-9 -63q0 -41 26.5 -68.5t64.5 -45t79 -24.5t69 -7q63 0 99.5 24.5t87.5 67.5q12 18 16 41t4 45q0 45 -38 82t-95 73t-124.5 76t-125 91 t-95.5 117.5t-38 156.5q0 129 66.5 210t197.5 81q74 0 124 -48t50 -124q0 -47 -26.5 -89t-79.5 -42h-25.5t-26 2t-20.5 9t-8 24v16q35 0 64.5 12.5t29.5 55.5q0 20 -11 39.5t-28.5 34t-38 22.5t-41.5 8q-29 0 -49 -17.5t-32.5 -42t-18.5 -53t-6 -51.5v-31.5t10 -27.5 q6 -6 19.5 -20.5t30 -31t31.5 -30.5t22 -20q51 -47 121.5 -83t133 -78t106.5 -97.5t44 -141.5q0 -47 -26.5 -113.5t-69.5 -128t-95.5 -105.5t-103.5 -44h-200q-47 0 -80 20.5t-53.5 51t-31 69.5t-10.5 76z" />
<glyph unicode="t" horiz-adv-x="813" d="M25 1063q0 6 4 28.5t8 28.5q8 16 25.5 28.5t38 23t40 20.5t33.5 27q57 68 102.5 132t73.5 150q4 12 7 39t9.5 53.5t16.5 47t31 20.5h14q2 -10 5 -36t6 -54.5t6.5 -54t3.5 -33.5v-88q0 -20 2 -49l4 -58q2 -33 4 -69l18 -21q31 -2 58 -4q23 -2 48 -4t42 -2h39h38 q12 18 19.5 29.5t30.5 11.5q18 0 24 -5t6 -22q0 -23 -17 -42t-43 -32.5t-53.5 -20.5t-47.5 -7q-23 0 -47.5 5t-47.5 5q-41 0 -70.5 -30.5t-35.5 -67.5q-4 -145 -21.5 -286.5t-17.5 -287.5q0 -45 2 -87t14.5 -74.5t40 -52t78.5 -19.5q6 0 20.5 1t18.5 1q45 35 65.5 91 t28.5 118q7 56 7 112v14q-1 62 -1 109q0 29 -4 56.5t-37 37.5q-10 4 -24.5 -7t-28.5 -28.5t-23.5 -35t-11.5 -25.5q0 -8 -1 -26.5t-3 -38t-4 -38t-2 -26.5q-4 -10 -19.5 -12t-19.5 -2v151q0 23 13.5 47.5t34 45t44 34t45.5 13.5q31 0 48.5 -14.5t26.5 -36t11 -48t2 -49.5 q0 -53 -2 -121.5t-11 -141.5t-28.5 -141.5t-53.5 -122.5t-86 -88t-126 -34h-63q-57 31 -85 82q-28 50 -38 112q-9 56 -9 113v11q1 62 1 116q0 160 20.5 319.5t20.5 319.5q0 8 -3 21.5t-8.5 26t-13.5 20.5t-20 8q-20 0 -38 -13.5t-37.5 -29.5t-43 -29.5t-53.5 -13.5z" />
<glyph unicode="u" horiz-adv-x="1058" d="M-6 1125q-2 5 0 14q6 23 36.5 38t70.5 24t78 13.5t57 4.5q68 0 99.5 -18.5t35.5 -74.5q-4 -29 -11.5 -97t-16.5 -145t-16.5 -146.5t-11.5 -96.5q-2 -23 -7 -69t-8 -102q-2 -42 -2 -87v-29q1 -60 12.5 -110.5t36 -82.5t67.5 -32q51 0 94 24.5t75.5 61.5t56.5 79t36 77 q41 100 69.5 185t49.5 181q4 14 7 42t5 32q8 72 14 129q2 20 2 39q0 35 -7 65q-11 46 -49 81.5t-116 60.5q-18 2 -33 8q-12 4 -23 10t-15 15v6l2 4v2q4 4 8 7t6 5h6h6q2 0 12.5 -2t21.5 -4t21.5 -4t12.5 -2h18q47 0 91 11t86 25.5t79 26t68 11.5q-39 -199 -95.5 -393.5 t-93.5 -389.5q-2 -10 -6 -32.5t-8 -49t-8 -50t-6 -34.5q0 -16 -3 -59q-2 -32 -2 -66v-22q1 -45 10 -79t36 -34q37 0 69.5 40t58 91.5t41 100.5t19.5 67q14 72 20.5 141.5t20.5 137.5h29q0 -47 -1 -83t-4 -69t-8.5 -64.5t-11.5 -70.5q-6 -23 -16 -59.5t-25.5 -77.5t-36 -83 t-48 -76t-61.5 -55.5t-75 -21.5q-43 0 -66.5 27t-34 63.5t-11.5 75.5v13q0 31 4 51q-31 -47 -69 -98.5t-84 -95.5t-103.5 -72.5t-129.5 -28.5q-53 0 -101 16.5t-71 61.5q-12 35 -14 77q-1 17 -1 33q0 26 2 52q3 44 8 87t10 80q2 20 7 63.5t12 96.5t14.5 112.5t13.5 113 t11 95.5t9 62q0 10 -1 34.5t-2 52.5t-3 52.5t-2 34.5q-2 29 -15.5 53.5t-56.5 24.5q-31 0 -66.5 -12.5t-64.5 -22.5q-12 4 -14 9z" />
<glyph unicode="v" horiz-adv-x="1038" d="M31 1243q0 20 14 31q59 16 117.5 21t120.5 5q33 0 55 -2t38.5 -8t33 -17t41.5 -32l12 -12t2 -12q0 -18 -19 -19q-12 0 -24 8t-24.5 16.5t-25 14.5t-24.5 4q-16 -6 -18 -16.5t-2 -20.5q0 -53 20.5 -100t32.5 -94q23 -78 49.5 -152t52.5 -151q8 -27 20.5 -72t26 -89 t27.5 -80t29 -44l2 2q2 0 2 1t2 1q2 6 7 22.5t5 20.5q6 20 18.5 72.5t26 112t24.5 112.5t15 76q2 10 5 36.5t8.5 56.5t8.5 57.5t5 37.5q0 55 -20.5 80t-44 34t-44 11t-20.5 16q0 8 2 12.5t12 8.5q0 2 15.5 4t23.5 2q49 6 97 17.5t93 37.5q12 8 31 24.5t38.5 34t38.5 31 t34 13.5q10 0 16 -3t6 -16q0 -27 -24.5 -46t-38.5 -38q-66 -90 -107 -185t-69 -200q-31 -145 -68 -307t-59 -315q0 -4 -2 -22.5t-5.5 -38t-5.5 -38t-2 -22.5q-2 -10 -5 -31.5t-8 -46t-8 -47.5t-5 -31t-9.5 -8h-11.5q-6 0 -15 1t-5 13q-6 104 -28.5 198.5t-51.5 193.5 q-10 33 -16.5 66.5t-26.5 62.5l-66 211q-2 2 -7 8t-5 10q-18 49 -40.5 118.5t-50.5 140.5t-60.5 132.5t-71.5 95.5q-4 2 -9.5 4.5t-7.5 2.5q-8 0 -32.5 3t-34.5 3q-6 4 -6 18z" />
<glyph unicode="w" horiz-adv-x="1167" d="M-20 1274q0 16 4 22q18 2 63 5.5t96.5 6.5t95.5 6t62 3q2 0 12.5 2t14.5 2t15 -2t13 -2q18 -6 19 -21q0 -14 -15.5 -17t-33 -8t-32.5 -19.5t-15 -51.5q0 -96 22.5 -189t42.5 -186q2 -23 11.5 -74t18.5 -109t18 -110.5t11 -72.5l13 -27l209 881h4q2 0 4 1t6 1 q25 0 38 -12.5t19 -30.5q2 -8 10.5 -41t17.5 -72t17.5 -71.5t10.5 -40.5q0 -8 8 -21q6 -23 20.5 -78t29.5 -116.5t28.5 -118t19.5 -76.5q0 -8 3 -29.5t7 -45t8.5 -45t6.5 -30.5l4 15l121 571v152q0 25 -18.5 37t-42 20t-42 18.5t-18.5 28.5q121 0 236.5 9.5t234.5 9.5 q0 -23 -9.5 -32t-24.5 -12.5t-34.5 -4.5t-40.5 -7q-47 -16 -91 -49t-54 -80l-47 -237q-4 -10 -8.5 -23.5t-10.5 -23.5q-23 -111 -49 -220.5t-48.5 -219t-39 -221.5t-18.5 -224q-4 -6 -10.5 -6h-12.5q-14 0 -20 13t-8.5 30.5t-1.5 35t1 23.5q0 10 3.5 18.5t3.5 18.5v2 q0 8 -2 28.5t-5.5 43t-5.5 42t-2 27.5q-6 20 -18 70.5t-25.5 107t-26 106.5t-18.5 69q-25 100 -45 203.5t-65 199.5q0 4 -4.5 6t-6.5 2l-8 -20q-2 -12 -8 -42t-14.5 -65t-15.5 -65.5t-9 -42.5q-4 -10 -14 -47t-22.5 -79t-21.5 -79t-12 -45q-37 -139 -48 -261t-13 -263 l-12 -80q-2 -4 -12.5 -4h-16.5q-10 0 -14 4q1 23 1 45q0 65 -8 129q-12 86 -32.5 171t-45 170t-46.5 169q0 6 -2 24.5t-2 22.5q-6 23 -21.5 82t-32 126.5t-32 127t-23.5 82.5q0 2 -2 10t-2 10q-4 4 -9 16.5t-11.5 25.5t-11.5 24.5t-7 17.5q-8 14 -25.5 24.5t-36 18.5 t-31.5 15.5t-13 17.5z" />
<glyph unicode="x" horiz-adv-x="1044" d="M102 -66q0 8 12.5 18.5t28 21t29.5 20.5t23 16q80 68 122.5 139.5t79.5 151.5q29 66 64 129.5t45 128.5q2 12 2 24q0 34 -14 67q-18 44 -31 87q-4 20 -9 41t-20 37l-49 127q-2 0 -6 4l-6 6q-12 31 -27.5 73t-37 84t-49.5 80t-64 58q-2 0 -6.5 2t-6.5 2q-8 0 -32.5 1 t-28.5 3q-12 0 -8 9q0 12 14 20q57 10 113.5 13t115.5 3q31 0 51.5 -1t37 -5t32 -11t37.5 -19q8 -6 9 -8.5t1 -6.5q0 -12 -16 -12q-23 0 -45.5 14.5t-44.5 12.5q-16 -4 -20.5 -9.5t-4.5 -13.5q-2 -31 13.5 -59.5t25.5 -57.5q31 -92 76 -182q6 -16 14 -43t17.5 -54.5 t20.5 -49t22 -25.5q8 0 8 4q4 2 9 11.5t9 11.5q6 12 20.5 44.5t31 68.5t31 68t20.5 44q2 6 8 22.5t12 35t12.5 34.5t6.5 23q4 33 -13.5 47t-40 20t-42 7t-17.5 10q0 10 16 12q6 0 15 2q6 2 12 2t10 2q47 4 94 10t95 21q12 6 30.5 16t38 20.5t38 17.5t30.5 7q23 0 20 -10 q-2 -14 -25.5 -26.5t-37.5 -24.5q-66 -51 -117 -109.5t-80 -122.5l-131 -284q-2 -4 -9 -24.5t-9 -33.5l-2 -4v-4l34 -141q14 -23 19.5 -44.5t15.5 -43.5q16 -37 31.5 -73t28.5 -71q0 -4 4 -9t8 -9l98 -207q6 -16 19.5 -32.5t32 -30t43 -19.5t57.5 -2q6 -2 5 -6t-3 -8 q0 -6 -1 -10.5t-11 -8.5q-53 -4 -108.5 -9t-106.5 -5q-53 0 -88 8t-70 31q-10 4 -12.5 6t-2.5 6q0 10 15 10h4q6 -4 28.5 -10t32.5 -8q16 -4 27 -4q10 0 18 8q2 4 2 9v8q4 29 -10 52t-22 52q-10 37 -24.5 70.5t-29.5 68.5q-4 6 -14 31t-22.5 54.5t-22.5 57t-16 42.5 q-4 12 -8.5 23t-18.5 20q-18 -18 -22 -29q-6 -14 -22.5 -49t-35 -75t-35 -76t-22.5 -50q-10 -20 -19.5 -48t-13.5 -50q-4 -29 13.5 -42.5t39 -19.5t40 -9t18.5 -11q0 -6 -17 -10q-63 -6 -126.5 -12.5t-116.5 -32.5q-6 -4 -20.5 -10.5t-30 -14.5t-29 -15.5t-17.5 -9.5 q-10 -4 -18 -4t-15.5 2t-5.5 6z" />
<glyph unicode="y" horiz-adv-x="1054" d="M18 1139l9 14q53 -4 79.5 -10t49.5 -10h13q80 0 139 23q63 26 138 73q10 10 16.5 20.5t14.5 24.5l19 10h8q10 2 14 -6t12 -14q-29 -66 -60.5 -133.5t-37.5 -139.5q14 -53 28.5 -88t30 -66.5t30 -67.5t26.5 -89q25 -45 41 -95t29.5 -102.5t27.5 -105.5t39 -105v-2 q39 78 73 163t51 174q15 80 15 159v19q-2 89 -32 176q-10 33 -24.5 64.5t-35.5 57.5q-23 18 -42 40t-30 48q-4 23 17.5 30t38.5 7q51 -29 75.5 -66.5t43 -78.5t40 -80t66.5 -70q16 -10 36.5 -12t41 0t42 6t42.5 4q-74 -47 -123 -103t-83 -125t-56.5 -148.5t-46.5 -174.5 q-25 -78 -37.5 -159.5t-25.5 -163.5t-34.5 -161t-64.5 -152q-29 -55 -70 -103.5t-92 -84.5t-110.5 -57.5t-120.5 -23.5q-9 -1 -18 -1q-58 0 -95 22q-43 26 -65.5 71t-26.5 103q-1 18 -1 37q0 41 6 83q9 60 28.5 117.5t44.5 100.5q23 27 46 53.5t51 48t58.5 36.5t67.5 17 q41 0 63.5 -31.5t32.5 -66.5q4 -12 9 -29.5t6 -35t-4 -30.5t-21 -20q-10 39 -20.5 78t-41.5 80l-16 2q-49 -16 -85 -59t-60.5 -97.5t-37 -109.5t-12.5 -98q6 -31 12.5 -58.5t20 -49t37 -35t66.5 -13.5q72 10 128 48t98 93.5t69.5 125t39.5 141.5q11 61 11 121v19 q-2 68 -19 126q-29 80 -53.5 159.5t-52.5 157.5q-23 59 -45.5 99t-49 77t-56 77t-64.5 101q-20 31 -39 62t-41 59q-45 47 -86 64.5t-105 38.5z" />
<glyph unicode="z" horiz-adv-x="1155" d="M37 -252q0 111 43 194t105.5 137t132 81.5t122.5 27.5q27 0 49.5 -4t39 -18t25.5 -42t9 -77q0 -27 -6 -56.5t-25 -29.5h-10q-2 8 -5 23.5t-7 32t-7 29.5t-3 20l-5 10t-8 6q-2 0 -17 1t-19 1q-49 0 -100.5 -14.5t-93.5 -50t-67.5 -95t-25.5 -151.5q0 -82 27.5 -132.5 t69.5 -78t89 -36.5t86 -9q53 0 132 16t160 58t151.5 117t109.5 192q29 85 29 150q0 26 -4 48q-16 80 -68.5 129t-131.5 72t-162 28q-33 2 -66 2q-50 -1 -96 -5q-78 -8 -132 -17q-37 0 -73.5 -11t-72.5 -23.5t-72 -23.5t-72 -11q-14 0 -16.5 20.5t-2.5 36.5q0 23 27.5 41 t63.5 33.5t70 29t46 23.5q197 184 310.5 314t166.5 220.5t57 146.5v13q0 47 -22 82l-446 -24l-101 -150q0 27 -4 64.5t-6 73.5t-1 63.5t11 31.5q56 -1 115 -1q109 0 225 4q178 8 338 8h76q8 -16 9 -32.5t1 -35.5q0 -47 -15.5 -73.5t-41.5 -49.5l-418 -549l-23 -34 q68 -27 138.5 -33t138 -15.5t128 -29t108 -69.5t78 -142t36.5 -244q-4 -16 -6 -29q-2 -10 -4 -22t-2 -19q-25 -139 -93.5 -219t-161.5 -123t-205 -59t-222 -29q-68 0 -118 3.5t-91 21.5t-79 61t-83 123q-8 23 -10 39.5t-2 38.5z" />
<glyph unicode="{" horiz-adv-x="581" d="M12 559q0 37 39 55q8 2 30.5 6.5t41.5 8.5q4 4 15.5 13t23.5 20.5t22.5 22.5t16.5 22q16 29 21 59.5t5 60.5q0 16 -1 30.5t-1 31.5q-2 53 -6 106.5t-4 106.5q0 88 22.5 167t96.5 144q23 20 54.5 22.5t60.5 8.5q6 2 18 2q29 0 44 -17.5t15 -39.5q0 -18 -11 -36t-36 -28 q-18 -4 -37.5 -5t-35.5 -11q-43 -23 -55.5 -75t-12.5 -112q0 -35 2 -66.5t2 -54.5q2 -31 2 -62.5v-64.5q0 -86 -15.5 -162.5t-72.5 -136.5q8 -4 15.5 -7t15.5 -7q45 -29 60 -80t15 -112q0 -76 -12 -159t-12 -155q0 -57 14 -98q14 -39 40 -57.5t55.5 -30.5t61.5 -23.5 t58 -35.5q23 -23 23 -50q0 -25 -17.5 -42t-44.5 -17q-20 0 -43 16q-16 16 -37.5 23.5t-44.5 15.5q-66 23 -101.5 56.5t-63.5 95.5q-16 35 -21.5 72.5t-5.5 78.5q0 53 7 106.5t11 100.5q0 -4 -2 -18.5t-2 -24.5q4 31 9.5 71t5.5 79q0 53 -17 84l-25 2q-24 2 -56.5 8 t-65.5 18.5t-49 30.5q-14 20 -15 43z" />
<glyph unicode="|" horiz-adv-x="489" d="M180 1534q4 33 22.5 49t41.5 16t39 -15t20 -48q0 -514 4 -1020t4 -1020v-4q0 -2 -2 -4q-2 -12 -10 -23l-4 -4q-6 -8 -14 -14q-4 0 -5 -2l-18 -6h-12q-8 0 -21 4q-8 4 -12 8q-10 4 -12 12q-8 8 -13 27q0 514 -4 1022t-4 1022z" />
<glyph unicode="}" horiz-adv-x="581" d="M-37 1391q0 16 8.5 31.5t30.5 25.5q10 4 22.5 6t22.5 2q23 0 44.5 -7t43.5 -17q63 -27 102 -56.5t60.5 -62.5t29 -68t7.5 -71q0 -43 -5 -89.5t-5 -95.5q0 -39 6 -80t22 -84q14 -39 41 -63.5t55.5 -39.5t56 -23.5t44.5 -14.5q39 -20 39 -57q0 -18 -12.5 -35t-34.5 -27 q-55 -2 -88 -22.5t-51.5 -54t-24.5 -77.5t-6 -92q0 -47 3 -93t3 -87q0 -49 -6 -113.5t-26.5 -124t-59.5 -104.5t-105 -57q-31 -6 -61.5 -10t-61.5 -11q-35 0 -52 18.5t-17 41.5q0 20 14 38.5t43 24.5q27 4 48.5 5t39 6.5t33.5 14.5t35 30q39 41 49 107.5t10 144.5 q0 41 -1 81.5t-1 81.5q0 96 16.5 182.5t81.5 137.5q-55 43 -98 106.5t-49 126.5q-2 8 -2 16.5v18.5q0 41 4 95.5t4 107.5q0 59 -10 109.5t-41 70.5q-29 18 -55.5 27.5t-55.5 21.5h-6q-4 0 -6 -1t-8 -3q-33 0 -51.5 18.5t-18.5 43.5z" />
<glyph unicode="~" horiz-adv-x="1220" d="M49 459v8q12 53 53 109.5t97.5 102.5t121 75.5t125.5 29.5q59 0 107 -32q27 -20 59.5 -61.5t65.5 -82.5t64.5 -73.5t56.5 -34.5h8q47 0 86 27.5t72.5 67.5t62.5 82t57 73q25 10 39 10q27 0 42.5 -15.5t15.5 -39.5q0 -23 -13 -43q-33 -35 -69.5 -84.5t-79.5 -95.5 t-92 -77.5t-107 -31.5q-10 0 -19 1t-20 3q-68 14 -113.5 60t-82.5 95.5t-74 88t-88 38.5q-35 0 -77 -21.5t-97 -72.5q-29 -27 -49.5 -52t-30.5 -64q-8 -29 -25.5 -42.5t-38.5 -13.5q-23 0 -40 16.5t-17 49.5z" />
<glyph unicode="&#xa1;" horiz-adv-x="471" d="M135 63q0 25 24.5 57t65.5 32q37 0 53.5 -30t16.5 -52q0 -41 -21.5 -59.5t-52.5 -18.5q-14 0 -39 10q-47 23 -47 61zM160 307v1098q4 33 22.5 49t40.5 16q23 0 39.5 -15t20.5 -48v-1098q-8 -29 -25.5 -42t-38.5 -13q-18 0 -35.5 12.5t-23.5 40.5z" />
<glyph unicode="&#xa2;" />
<glyph unicode="&#xa3;" />
<glyph unicode="&#xa4;" />
<glyph unicode="&#xa5;" />
<glyph unicode="&#xa6;" />
<glyph unicode="&#xa7;" />
<glyph unicode="&#xa8;" />
<glyph unicode="&#xa9;" horiz-adv-x="1908" d="M23 1681v19q0 6 1 19.5t1 15.5q2 8 10 24.5t12 20.5q8 8 33.5 24.5t32.5 18.5q2 0 28.5 3t38.5 3t38 -3t28 -3q8 -2 24.5 -18.5t20.5 -24.5q2 -4 4 -16.5t4 -27t4 -26.5t2 -14q-4 0 -28.5 6t-30.5 12q-2 0 -4 10.5t-5.5 21.5t-6.5 21.5t-5 12.5q0 2 -12 3t-20 1 q-4 0 -18.5 -1t-16.5 -3q-8 -4 -24.5 -20.5t-20.5 -24.5q-2 -4 -2 -9v-12q0 -4 1 -13t1 -11q2 -4 11 -12.5t13 -8.5q2 -2 18.5 -5t36 -6t35 -6t19.5 -5q6 -4 16 -13.5t21.5 -19.5t19.5 -20.5t10 -16.5q4 -2 5 -22.5t1 -30.5t-1 -32t-5 -24q-2 -8 -11 -22t-19.5 -28.5 t-20.5 -26t-16 -13.5q-2 -2 -25.5 -4t-38.5 -2q-14 0 -40.5 2t-28.5 4q-4 2 -13.5 10.5t-20.5 18.5t-20.5 20.5t-11.5 16.5q-4 8 -10 38t-6 38q6 0 30.5 -2t30.5 -7q2 0 9.5 -9t11.5 -13q2 -4 11 -23.5t13 -21.5t10 -2h19q8 0 21.5 1t15.5 1q4 2 13 11t9 13q0 2 1 22.5 t1 33.5q0 6 -1 27.5t-1 25.5q-8 0 -26.5 2t-40 6t-41 8t-25.5 9q-6 2 -16 11t-20.5 19t-19.5 20.5t-11 16.5t-2 12zM201 528v27q0 8 2 18t19.5 27.5t23.5 20.5h43h47q4 0 12 -9.5t10 -15.5q2 -2 3 -12.5t1 -12.5q-2 0 -13 1t-13 1l-45 23h-10h-11q-6 -2 -15 -10t-9 -13 q-2 -10 -2 -18v-27q0 -6 1 -23.5t1 -19.5q0 -4 9 -12t15 -10h11h10l45 22q2 0 13 2t13 2q0 -4 -1 -14t-3 -12q-2 -4 -10 -13.5t-12 -9.5q-2 0 -19.5 -1t-27.5 -1q-8 0 -24.5 1t-18.5 1q-6 2 -23.5 19.5t-19.5 25.5q0 2 -1 19.5t-1 23.5zM225 819v447h201v-33h-156v-123 q8 0 34 -8t32 -15q2 0 3 -4t1 -6t-1 -7t-3 -5q-4 -2 -14.5 -6t-22.5 -7t-23.5 -5.5t-17.5 -2.5v-225h-33zM336 129q4 6 14 18.5t20.5 25.5t19.5 25.5t13 18.5q4 8 13.5 25.5t9.5 19.5q0 4 -9 12.5t-14 10.5q-10 2 -33.5 2t-33.5 -2q2 4 10 12t12 10q2 0 14.5 1t18.5 1 q8 0 20.5 -1t14.5 -1q4 -2 12 -10t11 -12q0 -2 1 -15.5t1 -19.5t-1 -18.5t-1 -14.5q-4 -8 -21.5 -33.5t-24.5 -33.5l46 -21h-113zM356 1489.5v34.5v42.5t1 53.5t1 47.5v22.5q0 8 3.5 27.5t6.5 41t7 40t6 24.5q4 0 22.5 2t22.5 2q8 0 25.5 -2t19.5 -2t9 -7.5t12 -13.5 q6 -6 15 -23.5t9 -21.5q0 -2 1 -20.5t1 -28.5q0 -4 -1 -10t-1 -12v-17q-2 -4 -19.5 -21.5l-25.5 -25.5q-4 -2 -15.5 -8t-23.5 -14.5t-23.5 -14.5t-17.5 -8v-199l-33 -22v32.5t-1 51t-1 50zM401 508q0 10 1 26.5t1 18.5q0 4 9.5 12t13.5 8q2 0 14.5 1t18.5 1q8 0 19 -1t14 -1 q6 0 15 -8t9 -12q0 -2 1 -18.5t1 -26.5t-1 -26.5t-1 -18.5q0 -4 -9 -12.5t-15 -10.5q-2 0 -13.5 -1t-19.5 -1q-6 0 -18.5 1t-14.5 1q-4 2 -13.5 10.5t-9.5 12.5q0 2 -1 18.5t-1 26.5zM403 1647q2 0 5.5 -2.5t7.5 -2.5h2q2 0 4 3q2 0 4 2q8 4 25.5 21.5t19.5 21.5q0 2 1 14 t1 16q0 8 -1 21.5t-1 15.5q0 4 -9 12.5t-13 10.5h-7h-6q-2 0 -2 2q-2 0 -2 -1t-2 -1h-4zM424 494q0 -4 2 -9q2 -4 10 -12t13 -10q2 -2 11 -3t11 -1v98q-2 0 -11 -1t-11 -3q-4 -2 -12.5 -11.5t-10.5 -13.5t-2 -8v-12v-14zM471 887v268q0 2 5 13.5t12.5 24.5t14.5 27.5 t13 22.5q4 4 11.5 13.5t9.5 9.5h178q4 0 20.5 -16.5t24.5 -26.5q4 -8 13 -24.5t9 -20.5v-291q0 -4 -9 -20.5t-13 -24.5q-8 -10 -24.5 -26.5t-20.5 -16.5h-199zM489 217q0 14 1.5 40t1.5 28q0 4 9 12t15 10q2 0 13.5 1t19.5 1q6 0 18.5 -1t14.5 -1q4 -2 13 -10t9 -12 q0 -2 1 -28t1 -40t-1 -39.5t-1 -27.5q0 -4 -9 -11.5t-13 -9.5q-2 0 -14.5 -1t-18.5 -1q-8 0 -19.5 1t-13.5 1q-6 2 -15 9t-9 12q0 2 -1.5 27.5t-1.5 39.5zM537 150h22v135h-22v-135zM537 395h22v178q6 0 23.5 1t21.5 1q10 0 26.5 -1t18.5 -1q4 0 12.5 -8t8.5 -12q2 4 11 12 t13 8h4q2 0 3 1t4 1q2 0 4 -1t4 -1h2q4 -2 11 -21.5t11 -23.5q4 -2 6 -2h7h6q2 0 4 2q4 6 13 23.5t9 21.5h158v-133h-35v113q-4 0 -17.5 -9t-15.5 -16q-4 -4 -7 -16t-7 -26.5t-6 -27t-2 -18.5h-35v88q-2 -6 -10 -21t-17.5 -32.5t-17.5 -33t-10 -21.5q0 -4 -9.5 -13.5 t-13.5 -11.5t-8 -2h-14q-2 0 -10.5 1t-10.5 1q4 2 11.5 11.5t9.5 13.5v8q0 4 1 6t1 4q0 4 -1 13.5t-1 11.5q0 4 -3 14t-6.5 20.5l-6.5 19.5t-5 11q0 -6 -6 -18t-13 -26.5t-14.5 -27t-11.5 -16.5q-2 -2 -11 -5t-21.5 -6t-22.5 -6t-12 -3q-6 -4 -23.5 -12.5t-21.5 -12.5z M537 909l22 -45q4 -2 21.5 -4t25.5 -2q6 0 15.5 1t19.5 2t18.5 2t10.5 1q8 2 25.5 19.5t19.5 25.5q0 2 3 21.5t7 44t7 50.5t5 40v27v18q-2 4 -10 20.5t-12 24.5q-2 4 -10.5 13.5t-10.5 9.5t-27.5 1t-39.5 1t-39 -1t-29 -1t-13 -9.5t-9 -13.5v-246zM537 1378l45 23v401 l-45 21h157l-45 -21v-401l45 -23h-157zM582 508q0 -8 9 -24.5t13 -20.5q4 2 11.5 10t11.5 12v9q0 4 1 7t1 7q0 2 -1 5t-1 7v8q-4 4 -11.5 13.5t-11.5 11.5q-4 -4 -13 -20.5t-9 -24.5zM649 262q4 8 20.5 24.5t24.5 20.5q4 2 11.5 4t9.5 2v-184h-21q0 6 -3 22.5t-7 34t-8 32.5 t-6 22q-2 4 -9.5 12t-11.5 10zM737 1370v453q6 0 23.5 2t21.5 2q10 0 26.5 -2t18.5 -2t10.5 -7.5t12.5 -13.5t13 -23.5t9 -21.5v-12t1 -27.5t1 -31v-23.5v-27.5t-1 -35t-1 -29.5v-15q-2 -10 -5 -33.5t-6 -48t-6 -45t-5 -28.5q-2 -6 -10.5 -14.5t-12.5 -8.5q-6 0 -18 -2 t-26.5 -3t-27 -2t-18.5 -1zM780 217q0 10 1 26.5t1 18.5q2 10 10.5 26.5t12.5 18.5h12q4 0 9 1t10 1q8 0 20 -1t16 -1q4 -2 13.5 -10t9.5 -12q0 -2 1 -28t1 -40t-1 -39.5t-1 -27.5q0 -4 -9 -11.5t-14 -9.5q-4 0 -16 -1t-20 -1h-19q-6 0 -12 2q-4 2 -12.5 18.5t-10.5 26.5 q0 2 -1 18.5t-1 24.5zM782 1423l23 21v336h-23v-357zM827 145q4 0 11.5 1t11.5 4q4 2 13 11t9 13q0 2 1 13.5t1 19.5q0 2 -1 7t-1 11v15q-4 6 -11 23.5t-11 21.5h-4h-4q-2 0 -2 2q-4 0 -7.5 -1t-5.5 -1v-140zM827 819v447l21.5 -21.5t23.5 -21.5q2 -4 15.5 -21.5t28 -36 t27.5 -35t18 -20.5q4 -8 26.5 -24.5t28.5 -20.5v201h57v-447q-4 2 -12 10.5t-12 12.5q-8 12 -32 45t-50.5 67.5t-51 66.5t-32.5 44v-246h-56zM895 1378v45v45q0 20 3 70.5t6 107t6 106.5t5 71l158 -11h-112v-198h67q-6 0 -16.5 -3t-20.5 -9.5t-19 -13.5t-11 -11 q-2 -2 -5.5 -15.5t-6.5 -31t-6 -34.5t-3 -28q-2 -10 -1 -23t3 -26q2 -14 2 -30h129zM915 621q-2 4 2.5 6t10.5 2t10 -2t2 -6q-4 -10 -12 -10.5t-13 10.5zM940 195q-4 6 7 8t25.5 2t26 -2t7.5 -8q-8 -10 -33 -10.5t-33 10.5zM981 508q0 10 1 26.5t1 18.5q0 4 9 12t14 8 q6 0 20 2.5t29.5 4.5t30 3t18.5 1q0 -8 -1 -28.5t-3 -43.5t-4 -43t-2 -29q0 -8 -8.5 -25.5t-12.5 -19.5q-6 -2 -18.5 -1t-26.5 3t-26.5 4t-18.5 7h66q-4 4 -21.5 16t-21.5 16t-13.5 12.5t-9.5 10.5t-1 18.5t-1 26.5zM1004 494q0 -4 2 -9q2 -4 10 -12t12 -10q4 2 11.5 10 t9.5 12q0 4 2 9q0 4 1 7t1 7q0 2 -1 5t-1 7q-2 4 -2 8q-2 4 -9.5 13.5t-11.5 11.5q-4 -2 -12 -11.5t-10 -13.5t-2 -8v-12v-14zM1026 141v4q0 2 2 5q4 4 22.5 23.5t22.5 21.5q4 4 12.5 22.5t8.5 22.5q2 4 0 22.5t-2 22.5h-64q2 4 10.5 12t10.5 10q4 0 17 1t21 1q4 0 15.5 -1 t15.5 -1q6 -4 22.5 -20.5t20.5 -24.5q-2 8 7.5 24.5t17.5 20.5q2 2 19.5 3t25.5 1t24.5 -1t18.5 -3t9 -27.5t11 -39.5v-23v-22q-4 -12 -11 -38t-9 -28t-19.5 -5t-25.5 -3t-24.5 3t-18.5 5q-6 2 -13.5 14.5t-14.5 25.5t-12 27.5t-5 20.5l-68 -76h68l-113 -12q0 2 -1 5t-1 7z M1118 1233v33h279q0 -4 -4 -11.5t-9 -11.5q-2 -2 -11 -5t-20.5 -6t-21.5 -6t-12 -3q-10 -4 -22.5 -13.5t-12.5 -11.5v-379h-65v414h-101zM1118 1378v445h221q10 0 25.5 -16.5t19.5 -26.5q0 -2 1 -25.5t1 -38.5q0 -12 -1 -38.5t-1 -30.5t-8 -21.5t-12 -23.5l-25 -25 q-4 -4 -21.5 -11t-23.5 -10q4 -8 13.5 -26.5t20.5 -40t21.5 -40.5t14.5 -26q2 -4 9 -12t11 -10q4 4 12.5 21.5t10.5 21.5q2 6 6 29.5t7 49t6.5 49t3.5 30.5q2 10 5 30.5t7 42t7 39t3 21.5q0 6 3 18t7 26.5t7.5 27t5.5 16.5q2 0 5 2t5 2q0 -2 2 -2h4q2 -2 6 -2 q4 -2 12.5 -9.5t10.5 -11.5q2 -20 9 -70.5t14 -107.5t13.5 -108.5t8.5 -71.5q0 -6 1 -18.5t2 -26t1 -25.5v-18h-29q0 6 -3 18t-7 25.5t-7 26t-3 18.5q-4 8 -11.5 24.5t-11.5 20.5h-6h-4q-2 0 -2 2q-2 0 -3 -1t-3 -1h-4q-2 -2 -10.5 -18.5t-12.5 -26.5q-4 -6 -12 -32t-10 -34 q-6 0 -28 -1t-28 -1q-12 0 -32.5 1t-22.5 1t-11.5 8.5t-13.5 14.5q-4 4 -16 23.5t-26.5 43t-28 43t-17.5 23.5t-16 12t-16 10v-178h-56zM1141 440v181q0 -4 8 -12.5t12 -12.5q8 -4 34 -12.5t34 -10.5v-133q0 6 -3 18.5t-7.5 27t-7.5 26.5t-5 16t-9 13.5t-11 11.5 q-4 -6 -13.5 -23.5t-11.5 -21.5q-4 -8 -12 -32.5t-8 -35.5zM1186 1622h108v158h-108v-158zM1204 217q0 -8 1 -24.5t1 -18.5q0 -4 9.5 -13t13.5 -11q6 2 14 11t8 13q0 2 1 18.5t1 24.5q0 10 -1 26.5t-1 18.5q0 4 -8 12.5t-14 10.5q-4 -2 -13.5 -10.5t-9.5 -12.5 q0 -2 -1 -18.5t-1 -26.5zM1274 573q0 8 8 25.5t12 22.5q6 -4 15.5 -21.5t9.5 -26.5q0 -6 2 -25.5t3 -41t2 -39.5t1 -27h-33q-2 0 -6 15.5t-7 37t-5 44t-2 36.5zM1339 262q4 8 21.5 24.5t23.5 20.5q4 2 11.5 4t11.5 2v-184h-23q0 6 -3 22.5t-6 34t-6 32.5t-5 22 q-4 4 -12.5 12t-12.5 10zM1405 1122v21q0 4 1 18.5t1 16.5q2 6 10 23.5t13 21.5q8 8 33.5 24.5t33.5 18.5q2 0 28.5 3t39.5 3q12 0 37.5 -3t27.5 -3q6 -2 23.5 -18.5t21.5 -24.5q2 -4 4 -17.5t4.5 -28t3.5 -26.5t1 -14q-4 0 -29 6t-29 12q-2 2 -4 11.5t-5 21.5t-6 22.5 t-5 12.5q0 2 -13.5 3t-19.5 1t-19.5 -1t-17.5 -3q-6 -4 -22.5 -19.5t-20.5 -25.5q-2 -4 -2 -9v-14q0 -4 1 -12t1 -10q2 -4 10.5 -12.5t12.5 -10.5t20 -5t34.5 -6t35 -6t20.5 -6q6 -2 16.5 -11t21.5 -19t19.5 -20.5t10.5 -16.5q2 -2 3 -22.5t1 -32.5q0 -10 -1 -32t-3 -24 q-2 -8 -11.5 -21.5t-19.5 -27.5t-20.5 -26.5t-16.5 -14.5q-2 -2 -26.5 -4t-36.5 -2q-14 0 -41 2t-29 4q-4 2 -14 10.5t-21.5 18.5t-20.5 21.5t-11 17.5q-2 4 -4.5 15t-4.5 23.5t-4 22t-2 13.5q4 0 29.5 -3.5t30.5 -3.5q2 0 10 -9t12 -13q2 -4 10.5 -23.5t12.5 -21.5 q6 -2 12 -2h18q8 0 20.5 1t14.5 1q6 2 15.5 10t9.5 12q0 2 1 23.5t1 32.5q0 8 -1 28.5t-1 26.5q-8 0 -27.5 2t-41 6t-40 8t-26.5 8q-4 2 -14.5 10.5t-22 19.5t-20.5 21.5t-11 14.5q-2 6 -2 12zM1427 508q0 10 1.5 26.5t1.5 18.5q0 4 9 20.5t13 22.5q2 4 10 13t13 12v-226 q-4 2 -12.5 11.5t-10.5 13.5q-4 6 -13 22.5t-9 20.5q0 2 -1.5 18.5t-1.5 26.5zM1464 1568q0 -5 3 -9.5t8 -2.5q10 4 10 10.5t-10 10.5q-4 2 -7.5 -1t-3.5 -8zM1475 262q4 8 21 24.5t24 20.5q2 2 9 4t11 2v-184h-20q0 6 -3.5 22.5t-7.5 34t-7 32.5t-5 22q-2 4 -10 12t-12 10z M1518 508q0 10 1 26.5t1 18.5q0 4 8 12t12 8q8 2 35 6.5t35 4.5v-31h-45v-90h45v-33q-8 0 -35 4t-35 6q-4 2 -12 10.5t-8 12.5q0 2 -1 18.5t-1 26.5zM1599 1823h87v-221h112v231q8 0 28.5 -3t28.5 -7q2 -2 10.5 -9.5t10.5 -11.5v-21.5t1 -33.5t1 -34.5v-22.5v-27.5t-1 -36 t-1 -33v-16.5q0 -12 -3 -35.5t-7 -48.5t-7.5 -45.5t-3.5 -24.5q-4 -10 -22 -27.5t-25 -17.5h-198v56h176v100q-8 0 -26.5 3t-40 6t-40 7t-26.5 6q-2 0 -10.5 8.5l-12.5 12.5q-4 8 -12 25.5t-8 19.5q-2 12 -4 41t-3 60.5t-2.5 60t-1.5 39.5zM1653 395q2 6 6 18.5t7 27t6 27.5 t3 17v23v20q0 6 -3 18.5t-6 28t-7 27.5t-6 19h12h10q4 -6 13.5 -24.5t9.5 -23.5v-26q0 -10 1 -21.5t1 -17.5q0 -14 -1 -40t-1 -28q0 -4 -9.5 -21.5t-13.5 -23.5l-10 -2q-2 0 -6 1t-6 1z" />
<glyph unicode="&#xad;" horiz-adv-x="628" d="M-37 514q0 20 14.5 38.5t42.5 25.5h594q31 -4 46.5 -21.5t15.5 -40.5t-17.5 -42t-52.5 -19h-573q-35 0 -52.5 18.5t-17.5 40.5z" />
<glyph unicode="&#xae;" horiz-adv-x="1818" d="M80 1001q4 94 28.5 206t70.5 224.5t116 218t165 187.5t217 131t273 49q162 0 286 -45t213 -119.5t148.5 -174t92 -209t44 -222t5.5 -213.5q-4 -102 -25.5 -218t-63.5 -229.5t-107.5 -219t-159 -185.5t-216.5 -127t-280 -47q-160 0 -284 44t-216 119t-153.5 174t-98.5 210 t-49 225.5t-6 220.5zM182 1098q-4 -55 3.5 -150.5t34 -205t76.5 -224.5t134 -209t207 -158.5t295 -74.5q135 10 242.5 72.5t188.5 157.5t139.5 211t94 229.5t53 216t17.5 170.5q16 53 2 134t-56 172t-109.5 182t-154.5 166t-192.5 126t-224.5 59q-137 0 -244.5 -53 t-190.5 -135t-141.5 -181.5t-96.5 -196.5t-56.5 -180t-20.5 -128zM532 1567q0 14 17 14h33q84 4 162.5 19.5t164.5 15.5q125 0 202 -68.5t87 -193.5q12 -143 -74 -244q-2 -2 -12 -11t-22.5 -19.5t-22.5 -18.5t-12 -10q-4 -4 -16.5 -18.5t-14.5 -18.5v-2q0 -4 5 -18.5 t11.5 -32t12.5 -35t6 -27.5q2 -4 3 -16.5t2 -27.5t2 -27.5t1 -14.5q2 -8 4 -25.5t5 -36t5 -35t2 -22.5q4 -23 10.5 -48t16.5 -45.5t27.5 -34t46.5 -13.5q33 0 52 19.5t29.5 49t11.5 62.5t-1 59q0 8 -4 22.5t-10.5 29t-15.5 24.5t-19 10q-29 0 -41 -12t-16.5 -31.5t-2.5 -42 t2 -41.5q-23 0 -25.5 12.5t-2.5 28.5q-2 20 0 42t9 40.5t21.5 29.5t38.5 11q31 0 51.5 -18.5t33 -45t17.5 -56t7 -52.5q2 -31 -3 -75t-19.5 -84.5t-40 -70.5t-68.5 -30q-23 0 -40.5 10.5t-39.5 24.5q-29 20 -47.5 63t-29.5 95.5t-18 106.5t-14.5 99.5t-18.5 74t-32 28.5 q-10 0 -16 -3t-17 -7q-6 -4 -23.5 -13.5t-35.5 -20.5t-35.5 -20.5t-23.5 -13.5q-16 -14 -17.5 -50t0.5 -54q4 -37 14.5 -79t32.5 -77q6 -10 13.5 -13t13.5 -7.5t10 -11.5t6 -25v-2q0 -2 -4 -11q-2 -4 -4 -6q-4 0 -15 6.5t-13 10.5h-50q-49 0 -84.5 -13.5t-72.5 -42.5 q-6 -4 -12.5 -15t-13.5 -22.5t-15 -20.5t-17 -9q-14 0 -14 10v4q55 84 84 173t37 194q2 53 0 106t8 107q-2 16 -3 59t-2 92t-1 92v62q0 4 1 18.5t2 29.5t2 29.5t1 18.5v6q-4 53 -27.5 80t-51 39t-49 16t-24.5 15zM758 1355.5q2 -57.5 6 -102.5q0 -4 3 -20t6 -34.5t6 -35 t5 -20.5q0 -10 2 -35t4.5 -52.5t4.5 -53t2 -35.5q0 -14 12 -15q23 0 47.5 16.5t40.5 26.5q49 31 83 77t53.5 100.5t26.5 112.5t1 116q-4 33 -14.5 64.5t-30 57t-47 42t-64.5 16.5q-61 0 -93 -34t-44 -84t-10 -107.5z" />
<glyph unicode="&#xbc;" horiz-adv-x="1558" d="M68 1196q0 27 20 49q27 18 57.5 43t63.5 47.5t66.5 38t68.5 19.5q45 -6 62 -45q6 -23 6 -48q0 -45 -11.5 -93t-13.5 -91v-59q0 -104 5 -209t7 -209q-8 -29 -25.5 -42t-37.5 -13q-18 0 -35.5 12t-24.5 41q-2 104 -7 208.5t-5 209.5v59q0 27 7.5 59.5t11.5 65.5 q-35 -23 -67.5 -50.5t-59.5 -43.5q-16 -6 -29 -6q-27 0 -43 17.5t-16 39.5zM268 12v8q8 45 27.5 85t46.5 77t56.5 71t56.5 71q31 43 55.5 86t52.5 88q76 119 154 236.5t143 240.5q59 106 114.5 214t125.5 208q25 27 53 26q23 0 40 -16t17 -43q0 -20 -12 -41 q-66 -96 -119 -198.5t-110 -206.5q-70 -127 -150 -249t-157 -245q-29 -45 -53.5 -88t-55.5 -86q-20 -29 -46 -57.5t-50.5 -58.5t-43 -62.5t-24.5 -69.5q-8 -29 -25.5 -42t-37.5 -13q-23 0 -40.5 16.5t-17.5 48.5zM864 223q0 4 1 7t1 8q35 100 88.5 193t102.5 185 q20 37 39 72q6 10 8 26.5t12 22.5q20 31 53 31q39 0 58 -43v-12q0 -33 -24.5 -88.5t-59.5 -120t-72 -130t-63 -116.5q16 -4 37.5 -5t44.5 -1q35 0 68.5 2t60.5 6q-2 47 -2 96.5v96.5q4 33 22 49t41 16t39 -15.5t20 -47.5v-84t2 -84q12 4 21 4q23 0 41 -17.5t18 -46.5 q0 -14 -2 -20q-6 -16 -19.5 -30.5t-35.5 -16.5h-18q2 -29 2 -59.5v-59.5q-8 -29 -25.5 -42t-38.5 -13q-18 0 -35.5 12t-23.5 41v53.5t-2 52.5q-45 -4 -83 -8t-42 -4q-39 2 -76 4t-74 13q-8 2 -28.5 12t-24.5 10h-2l4 -4q-16 12 -24.5 24.5t-8.5 30.5z" />
<glyph unicode="&#xbd;" horiz-adv-x="1554" d="M57 1186q0 27 21 49q27 18 57.5 43t63 47.5t66.5 37.5t69 19q45 -6 61 -45q6 -23 6 -47q0 -45 -11 -93t-13 -91v-59q0 -104 5 -209t7 -209q-8 -29 -25.5 -42.5t-37.5 -13.5q-18 0 -36 12.5t-24 41.5q-2 104 -7 208.5t-5 208.5v60q0 27 7 59.5t11 65.5 q-35 -23 -67.5 -50.5t-59.5 -43.5q-16 -6 -28 -7q-27 0 -43.5 17.5t-16.5 40.5zM215 12v8q8 45 27.5 85t46 77t56.5 71t56 71q31 43 55.5 86t53.5 88q76 119 153.5 236.5t143.5 240.5q59 106 114.5 214t125.5 208q25 27 53 26q23 0 40 -16t17 -43q0 -20 -12 -41 q-66 -96 -119 -198.5t-111 -206.5q-70 -127 -149.5 -249t-157.5 -245q-29 -45 -53.5 -88t-54.5 -86q-20 -29 -46 -57.5t-50.5 -58.5t-43 -62.5t-24.5 -69.5q-8 -29 -25.5 -42t-38.5 -13q-23 0 -40 16.5t-17 48.5zM926 90q0 14 6 33q20 53 62 90t88 73t86 74.5t59 94.5 q6 18 6 39q0 29 -13.5 52t-35 40.5t-48 28t-53.5 14.5q-47 -7 -88 -23q-33 0 -51 18.5t-18 43.5q0 16 8 31.5t31 25.5q61 23 120 23q72 0 133.5 -32t102.5 -100q10 -18 20.5 -40.5t10.5 -45.5v-34q0 -20 -2 -45t-7 -39q-18 -45 -48.5 -82t-64.5 -70t-69 -61.5t-63 -55.5 q31 2 61.5 5.5t63.5 3.5q41 0 79.5 -7.5t79.5 -9.5q31 -4 46.5 -21.5t15.5 -39.5q0 -23 -17.5 -42.5t-52.5 -19.5q-41 4 -82 10.5t-84 6.5q-41 0 -76.5 -4.5t-74.5 -4.5q-35 0 -82 11q-49 14 -49 59z" />
<glyph unicode="&#xbe;" horiz-adv-x="1523" d="M72 668q0 29 18.5 45t42.5 16q29 0 51 -22q12 -27 49 -27q25 0 55.5 12.5t58.5 31.5t47.5 43t21.5 46v12q0 35 -20.5 52.5t-48.5 29t-53.5 24.5t-37.5 38q-6 12 -6 24q0 23 16.5 44.5t34.5 41t34.5 39t16.5 37.5q0 16 -18 35q-31 27 -68 27q-14 0 -20 -3 q-23 -4 -35.5 -18.5t-28.5 -30.5q-23 -16 -47 -16q-25 0 -41 16.5t-16 38.5q0 27 20 49q39 41 87 61.5t98 20.5q76 0 133 -46t57 -132v-18q-4 -41 -21.5 -69t-39.5 -54q53 -27 86 -68q25 -31 35 -61.5t10 -61.5q0 -53 -30 -101t-76 -85t-101 -58.5t-109 -21.5 q-47 0 -88 20.5t-63 65.5q-2 6 -3 11.5t-1 11.5zM268 12v8q8 45 27.5 85t46.5 77t56.5 71t56.5 71q31 43 55.5 86t52.5 88q76 119 154 236.5t143 240.5q59 106 114.5 214t125.5 208q25 27 53 26q23 0 40 -16t17 -43q0 -20 -12 -41q-66 -96 -119 -198.5t-110 -206.5 q-70 -127 -150 -249t-157 -245q-29 -45 -53.5 -88t-55.5 -86q-20 -29 -46 -57.5t-50.5 -58.5t-43 -62.5t-24.5 -69.5q-8 -29 -25.5 -42t-37.5 -13q-23 0 -40.5 16.5t-17.5 48.5zM864 211q0 4 1 7t1 7q35 100 88.5 193.5t102.5 185.5q20 37 39 72q6 10 8 26.5t12 22.5 q20 31 53 31q39 0 58 -43v-13q0 -33 -24.5 -88t-59.5 -119.5t-72 -130t-63 -116.5q16 -4 37.5 -5t44.5 -1q35 0 68.5 2t60.5 6q-2 47 -2 96v96q4 33 22 49.5t41 16.5t39 -15.5t20 -48.5v-84t2 -84q12 4 21 5q23 0 41 -17.5t18 -46.5q0 -14 -2 -20q-6 -16 -19.5 -30.5 t-35.5 -17.5h-18q2 -29 2 -59.5v-58.5q-8 -29 -25.5 -42.5t-38.5 -13.5q-18 0 -35.5 12.5t-23.5 41.5v53t-2 53q-45 -4 -83 -8t-42 -4q-39 2 -76 4t-74 12q-8 2 -28.5 12.5t-24.5 10.5h-2l4 -4q-16 12 -24.5 24.5t-8.5 30.5z" />
<glyph unicode="&#xe4;" horiz-adv-x="1067" d="M33 178q0 133 47 211t118.5 124t153.5 71.5t154 55.5t119 75t47 129q0 53 -10.5 111.5t-36 106.5t-68.5 78.5t-106 30.5q-39 0 -82 -13t-79 -37.5t-59.5 -59.5t-23.5 -80q0 -53 23.5 -95t82.5 -42q39 0 52.5 28.5t18.5 64.5t11 64.5t29 28.5q16 0 18 -10t2 -25 q0 -20 -7 -55t-21.5 -68.5t-38 -58.5t-53.5 -25q-39 0 -70 17.5t-51.5 46.5t-31.5 63.5t-11 71.5q0 61 39 106.5t95 75t118.5 43t111.5 13.5q100 0 157.5 -33t87.5 -88t37 -129t7 -158v-17.5t-1 -28.5t-1 -28.5v-17.5q-4 -25 -16.5 -86t-25.5 -131t-25.5 -131.5t-16.5 -85.5 q0 -2 -2 -12.5t-4 -21.5t-4 -22.5t-2 -17.5v-10q0 -61 24.5 -97t83.5 -36t95 53t56.5 126t27 147.5t6.5 119.5q0 10 1 36t-3.5 51.5t-14.5 45t-30 19.5q-23 0 -37.5 -19.5t-24.5 -42t-18.5 -42t-18.5 -19.5t-13 8t-3 16q0 18 8 43t22.5 46.5t34 37t41.5 15.5 q37 0 54.5 -22.5t25.5 -53.5t8 -64.5v-56.5q0 -29 -3 -79t-11 -107.5t-23.5 -116.5t-40 -107.5t-60.5 -78t-83 -29.5q-70 0 -99.5 19.5t-42.5 45t-20.5 51t-27.5 36.5q-35 -37 -74 -76t-82 -70t-92 -51.5t-105 -20.5q-47 0 -91 20.5t-77.5 54.5t-54 78t-20.5 91zM184 260 q0 -37 14.5 -70.5t40 -59.5t59.5 -41t73 -15q57 0 111.5 32.5t92.5 75.5q-4 59 4.5 115.5t19.5 112t21.5 110.5t10.5 113q0 2 -1 3t-1 5v6q-61 -27 -138 -60.5t-144.5 -80.5t-115 -107.5t-47.5 -138.5z" />
<glyph unicode="&#xf1;" horiz-adv-x="1085" d="M59 2v39q55 98 93 211t62 229.5t35 235.5t11 229q0 8 -1 37t-1 39q-10 37 -37.5 50t-56.5 20.5t-52.5 20.5t-23.5 54q49 0 98.5 -8t98.5 -8q53 0 102 13.5t100 13.5q0 -37 -9 -74t-21.5 -75t-21.5 -76t-9 -79v-18q23 18 46.5 46t45 57.5t41 55t31.5 42.5q43 57 109.5 94 t127.5 59h13q102 0 157.5 -63.5t55.5 -161.5q0 -123 -56.5 -252t-141.5 -250t-184.5 -228.5t-185.5 -188.5h-12q-6 0 -15 1t-9 9q2 4 4 10q2 8 8 14q4 8 17.5 26.5t17.5 23.5q70 76 134 160.5t113.5 179t78 195.5t28.5 210q0 27 -4 56.5t-15.5 53t-32 39t-55.5 15.5 q-23 0 -30.5 -3t-28.5 -22q-199 -184 -288 -422.5t-89 -507.5q0 -78 6 -151.5t6 -149.5q-31 0 -43 34t-23 74t-34 73.5t-74 33.5q-23 0 -43 -8t-43 -8z" />
<glyph unicode="&#xfe;" horiz-adv-x="804" d="M-18 170q0 16 5 36.5t15 39t24.5 31t32.5 12.5t32.5 -10.5t23 -25.5t12.5 -32.5t4 -32.5q-16 0 -24.5 9.5t-14.5 19.5t-14 19.5t-23 9.5q-12 0 -20 -10.5t-13.5 -25.5t-6.5 -30.5t-1 -23.5q0 -18 2 -43t10.5 -47.5t21.5 -38t38 -15.5q27 0 47.5 20.5t35.5 49.5t23.5 59.5 t12.5 51.5q0 10 3 35.5t6 53t6 53t3 36.5q2 29 5 87t6.5 132t7.5 155.5t7 155.5t5 132.5t2 86.5v24.5t1 46.5t1 52.5v40.5v31.5t-1 50.5t-1 49.5v32.5q-8 57 -41 106.5t-67.5 93.5t-63.5 81.5t-29 72.5q0 2 -1 11.5t0 19.5t5 17.5t13 7.5q6 0 11 -12.5t10 -28t11.5 -32 t14.5 -22.5q57 -47 115.5 -56t125.5 -17q10 -2 11.5 -9.5t1.5 -13.5q0 -16 -13 -31q-4 -162 -6 -321.5t-12 -321.5l8 -10q6 4 12.5 14.5t10.5 20.5q6 12 10 29q31 68 76 117.5t127 49.5q70 0 107.5 -48t56 -114.5t21.5 -136t3 -114.5q0 -43 -1 -119t-7 -165t-23.5 -180 t-48 -166t-81 -122t-124.5 -47q-31 0 -58.5 15.5t-51 40t-40.5 54t-30 58.5q-18 -29 -31.5 -71t-32 -79.5t-45 -64.5t-71.5 -27q-43 0 -70.5 26t-45 62.5t-24.5 78.5t-7 75zM338 623q0 -35 7 -101.5t27.5 -133t56.5 -117t91 -50.5q66 0 101.5 56.5t53 133t21.5 154.5t4 121 q0 49 -3 108.5t-21.5 110.5t-57 86t-108.5 35q-55 0 -89 -50t-52.5 -116.5t-24.5 -134t-6 -102.5z" />
<glyph unicode="&#x2dc;" />
<glyph unicode="&#x2000;" horiz-adv-x="1029" />
<glyph unicode="&#x2001;" horiz-adv-x="2059" />
<glyph unicode="&#x2002;" horiz-adv-x="1029" />
<glyph unicode="&#x2003;" horiz-adv-x="2059" />
<glyph unicode="&#x2004;" horiz-adv-x="686" />
<glyph unicode="&#x2005;" horiz-adv-x="514" />
<glyph unicode="&#x2006;" horiz-adv-x="343" />
<glyph unicode="&#x2007;" horiz-adv-x="343" />
<glyph unicode="&#x2008;" horiz-adv-x="257" />
<glyph unicode="&#x2009;" horiz-adv-x="411" />
<glyph unicode="&#x200a;" horiz-adv-x="114" />
<glyph unicode="&#x2010;" horiz-adv-x="628" d="M-37 514q0 20 14.5 38.5t42.5 25.5h594q31 -4 46.5 -21.5t15.5 -40.5t-17.5 -42t-52.5 -19h-573q-35 0 -52.5 18.5t-17.5 40.5z" />
<glyph unicode="&#x2011;" horiz-adv-x="628" d="M-37 514q0 20 14.5 38.5t42.5 25.5h594q31 -4 46.5 -21.5t15.5 -40.5t-17.5 -42t-52.5 -19h-573q-35 0 -52.5 18.5t-17.5 40.5z" />
<glyph unicode="&#x2012;" horiz-adv-x="628" d="M-37 514q0 20 14.5 38.5t42.5 25.5h594q31 -4 46.5 -21.5t15.5 -40.5t-17.5 -42t-52.5 -19h-573q-35 0 -52.5 18.5t-17.5 40.5z" />
<glyph unicode="&#x2013;" />
<glyph unicode="&#x2014;" />
<glyph unicode="&#x2018;" horiz-adv-x="368" d="M96 1409q2 33 19.5 49.5t40.5 16.5t40 -15.5t23 -48.5q8 -117 19.5 -234.5t17.5 -234.5q-6 -29 -22.5 -42t-36.5 -13q-18 0 -37 12t-27 41q-6 117 -17.5 234.5t-19.5 234.5z" />
<glyph unicode="&#x2019;" horiz-adv-x="368" d="M82 940q18 117 32.5 234.5t30.5 234.5q10 33 31 49.5t43 16.5q23 0 37 -15.5t12 -48.5q-16 -117 -30.5 -234.5t-32.5 -234.5q-12 -29 -31.5 -42t-40.5 -13q-18 0 -33.5 12t-17.5 41z" />
<glyph unicode="&#x201c;" />
<glyph unicode="&#x201d;" />
<glyph unicode="&#x2022;" horiz-adv-x="976" d="M287 1067q0 111 72.5 168t179.5 57q53 0 94 -24.5t68.5 -62.5t41 -86t13.5 -93q0 -100 -57.5 -159.5t-155.5 -59.5q-121 0 -188.5 69.5t-67.5 190.5z" />
<glyph unicode="&#x202f;" horiz-adv-x="411" />
<glyph unicode="&#x205f;" horiz-adv-x="514" />
<glyph unicode="&#x2122;" horiz-adv-x="1996" d="M170 1106v8q20 59 32.5 109.5t12.5 115.5q0 35 -2 68t-8 68q0 4 -2 13t-2 11q-2 2 -4 15.5t-7 15.5q-2 8 2.5 10t8.5 2q6 0 25.5 -13t39.5 -18q63 0 124 9.5t118 9.5q78 0 155.5 -10.5t155.5 -10.5q6 0 24.5 1t22.5 1q4 4 14.5 13.5t14.5 9.5h2q2 0 2 1t2 1q10 0 10 -14 v-4q-12 -47 -19 -90.5t-7 -96.5v-14q2 -14 4 -45t2 -33t4 -16.5t9 -31.5t10.5 -34.5t9.5 -26.5q0 -6 2 -12l4 -12v-6q0 -12 -12 -13q-12 0 -22.5 33t-19 75t-14.5 83t-10 57q-45 145 -164 146q-12 0 -27.5 -1t-30 -6.5t-24.5 -16.5t-10 -32v-694q0 -47 19.5 -82t56.5 -37 q0 -2 1 -4t1 -4v-6q0 -12 -5 -15t-12 -3q-8 0 -12 3t-8 3q-39 0 -76 -36t-66.5 -79t-49 -79t-25.5 -36q-12 1 -12 15t10 39.5t18 44.5q16 66 36 133t20 139v342q2 72 7 142.5t5 142.5v84q-10 41 -37 46t-57 5h-33t-33 -8q-2 0 -6 -4t-8 -9q-10 -14 -30.5 -38.5t-33.5 -45.5 q-6 -12 -17 -59t-22.5 -97t-21.5 -91t-19 -41q-16 0 -16 10zM879 483q2 10 7 19.5t21 13.5q10 0 20.5 1t20.5 7q33 6 43 34t15 56q4 41 10 85t10 89q4 6 4 14.5t4 16.5q20 88 30.5 177t16.5 178.5t11.5 179.5t15.5 180q4 2 10 1t12 -1q29 0 30 -27.5t-3 -48.5l2 -4l-10 -10 l2 -12l-2 -2q2 -25 7 -51.5t11 -55.5q25 -78 47.5 -154.5t36.5 -154.5t25.5 -153t52.5 -140l6 -4q6 8 6 14q14 43 25.5 85t26.5 79q16 51 35.5 99t31.5 96q33 86 44.5 175t19.5 181q4 16 8 30.5t8 28.5q8 4 25 4q4 -2 12 -4q-10 -61 -6 -120.5t15 -120t23.5 -120 t16.5 -118.5v-39q10 -84 20.5 -165t22.5 -167q-2 -6 2 -18q4 -16 9.5 -32.5t9.5 -33.5q8 -23 28.5 -35t26.5 -34l2 -8l-6 -7q-47 -4 -91 2.5t-85 10.5h-23l-16 8l-10 16q4 12 19 11.5t32 9.5q8 10 10 20t4 21q4 74 -7 147.5t-20 145.5q-10 70 -13 139t-13 137l-4 23 q-55 -166 -101.5 -335t-111.5 -335l-11 -4q-14 -2 -20 8t-8 20q-16 82 -37 166l-4 15q-39 135 -74 286q-6 29 -12 55.5t-15 55.5v-2l-2 -8q-16 -106 -33.5 -210t-27.5 -208v-57.5t4 -55.5q2 -16 15.5 -25t28.5 -16.5t28.5 -15.5t19.5 -23q-72 4 -142.5 -2t-141.5 -4z" />
<glyph unicode="&#x25fc;" horiz-adv-x="1331" d="M0 0v1331h1331v-1331h-1331z" />
</font>
</defs>
</svg>
